{
.appVersion = "1352";
DisplayStrings = (
AORTA,
"w½"
);
customParameters = (
{
name = Axes;
value = (
{
Name = Weight;
Tag = wght;
},
{
Name = Width;
Tag = wdth;
},
{
Name = Waistline;
Tag = WSLN;
}
);
},
{
name = licenseURL;
value = "http://scripts.sil.org/OFL";
},
{
name = preferredFamilyName;
value = Crispy_SAMPLE;
},
{
name = fsType;
value = (
);
},
{
name = vendorID;
value = "!666";
}
);
date = "2018-06-13 01:37:59 +0000";
familyName = Crispy;
fontMaster = (
{
ascender = 1700;
capHeight = 1600;
custom = "Regular-Narrow-Stout";
descender = -300;
guideLines = (
{
name = "topserif-narrow";
position = "{164, 1700}";
}
);
id = "1577B97C-DCC5-4AA4-842F-E9BB22E99E3C";
userData = {
GSCornerRadius = 15;
};
weightValue = 0;
widthValue = 0;
xHeight = 1200;
}
);
glyphs = (
{
glyphname = A;
layers = (
{
layerId = "1577B97C-DCC5-4AA4-842F-E9BB22E99E3C";
paths = (
{
closed = 1;
nodes = (
"37 0 LINE",
"37 1437 LINE",
"71 1598 LINE",
"131 1598 LINE",
"131 0 LINE",
"133 0 LINE",
"133 1600 LINE",
"69 1600 LINE",
"35 1438 LINE",
"35 0 LINE"
);
},
{
closed = 1;
nodes = (
"132 798 LINE",
"132 800 LINE",
"36 800 LINE",
"36 798 LINE"
);
}
);
userData = {
com.schriftgestaltung.Glyphs.lastChange = "2020-10-07 01:13:46 +0000";
com.typemytype.robofont.pointLabels = {
};
};
width = 168;
}
);
unicode = 0041;
},
{
glyphname = B;
layers = (
{
layerId = "1577B97C-DCC5-4AA4-842F-E9BB22E99E3C";
paths = (
{
closed = 1;
nodes = (
"109 0 LINE",
"143 163 LINE",
"143 801 LINE",
"92 801 LINE",
"126 962 LINE",
"126 1600 LINE",
"47 1600 LINE",
"47 0 LINE"
);
},
{
closed = 1;
nodes = (
"49 799 LINE",
"141 799 LINE",
"141 163 LINE",
"107 2 LINE",
"49 2 LINE"
);
},
{
closed = 1;
nodes = (
"49 1598 LINE",
"124 1598 LINE",
"124 962 LINE",
"90 801 LINE",
"49 801 LINE"
);
}
);
userData = {
com.schriftgestaltung.Glyphs.lastChange = "2019-04-28 05:35:59 +0000";
com.typemytype.robofont.pointLabels = {
};
};
width = 181;
}
);
unicode = 0042;
},
{
glyphname = C;
layers = (
{
layerId = "1577B97C-DCC5-4AA4-842F-E9BB22E99E3C";
paths = (
{
closed = 1;
nodes = (
"130 0 LINE",
"130 612 LINE",
"128 612 LINE",
"128 2 LINE",
"37 2 LINE",
"37 1437 LINE",
"71 1598 LINE",
"128 1598 LINE",
"128 990 LINE",
"130 990 LINE",
"130 1600 LINE",
"69 1600 LINE",
"35 1437 LINE",
"35 0 LINE"
);
}
);
userData = {
com.schriftgestaltung.Glyphs.lastChange = "2019-04-28 11:49:41 +0000";
com.typemytype.robofont.pointLabels = {
QjTd5GXXER = (
rightside
);
o9Cec4GtsE = (
rightside
);
};
};
width = 162;
}
);
unicode = 0043;
},
{
glyphname = D;
layers = (
{
layerId = "1577B97C-DCC5-4AA4-842F-E9BB22E99E3C";
paths = (
{
closed = 1;
nodes = (
"98 0 LINE",
"132 163 LINE",
"132 1600 LINE",
"34 1600 LINE",
"34 0 LINE"
);
},
{
closed = 1;
nodes = (
"36 1598 LINE",
"130 1598 LINE",
"130 163 LINE",
"96 2 LINE",
"36 2 LINE"
);
}
);
userData = {
com.schriftgestaltung.Glyphs.lastChange = "2019-04-28 05:35:59 +0000";
com.typemytype.robofont.pointLabels = {
DhFNkdKcfj = (
leftside
);
yunTqSzRcA = (
rightside
);
};
};
width = 161;
}
);
unicode = 0044;
},
{
glyphname = E;
layers = (
{
layerId = "1577B97C-DCC5-4AA4-842F-E9BB22E99E3C";
paths = (
{
closed = 1;
nodes = (
"136 0 LINE",
"136 2 LINE",
"49 2 LINE",
"49 799 LINE",
"129 799 LINE",
"129 801 LINE",
"49 801 LINE",
"49 1598 LINE",
"135 1598 LINE",
"135 1600 LINE",
"47 1600 LINE",
"47 0 LINE"
);
}
);
userData = {
com.schriftgestaltung.Glyphs.lastChange = "2019-04-28 05:35:59 +0000";
com.typemytype.robofont.pointLabels = {
32aoCNw8Jt = (
rightside
);
NnvFkLKjyD = (
rightside
);
S91n4lNRRk = (
rightside
);
XMbDdjq7aS = (
rightside
);
};
};
width = 162;
}
);
unicode = 0045;
},
{
glyphname = F;
layers = (
{
layerId = "1577B97C-DCC5-4AA4-842F-E9BB22E99E3C";
paths = (
{
closed = 1;
nodes = (
"49 0 LINE",
"49 799 LINE",
"133 799 LINE",
"133 801 LINE",
"49 801 LINE",
"49 1598 LINE",
"134 1598 LINE",
"134 1600 LINE",
"47 1600 LINE",
"47 0 LINE"
);
}
);
userData = {
com.schriftgestaltung.Glyphs.lastChange = "2019-04-28 05:35:59 +0000";
com.typemytype.robofont.pointLabels = {
F6QQD702pX = (
rightside
);
bL0wwzlx16 = (
rightside
);
};
};
width = 152;
}
);
unicode = 0046;
},
{
glyphname = G;
layers = (
{
layerId = "1577B97C-DCC5-4AA4-842F-E9BB22E99E3C";
paths = (
{
closed = 1;
nodes = (
"131 0 LINE",
"131 751 LINE",
"75 751 LINE",
"75 749 LINE",
"129 749 LINE",
"129 2 LINE",
"37 2 LINE",
"37 1436 LINE",
"71 1598 LINE",
"131 1598 LINE",
"131 990 LINE",
"133 990 LINE",
"133 1600 LINE",
"69 1600 LINE",
"35 1437 LINE",
"35 0 LINE"
);
}
);
userData = {
com.schriftgestaltung.Glyphs.lastChange = "2019-04-28 11:53:33 +0000";
com.typemytype.robofont.pointLabels = {
03XIRquU5H = (
rightside,
crossbar,
shiftstem,
rightside,
rightside,
shiftdown,
rightside,
rightside,
rightside,
rightside,
rightside,
rightside,
rightside,
rightside,
rightside,
rightside,
rightside,
rightside,
rightside,
rightside,
rightside,
rightside,
rightside,
rightside,
crossbar,
rightside,
rightside,
rightside,
rightside,
rightside,
rightside,
rightside,
rightside,
rightside,
rightside,
rightside,
rightside,
rightside,
rightside,
rightside,
rightside,
rightside,
rightside,
rightside,
rightside,
crossbar,
rightside,
rightside,
shiftdown,
rightside,
rightside,
rightside,
rightside,
rightside,
rightside,
rightside,
rightside,
rightside,
rightside,
rightside,
rightside,
rightside,
rightside,
rightside,
rightside,
rightside,
rightside,
crossbar,
rightside,
rightside,
rightside,
rightside,
rightside,
rightside,
rightside,
rightside,
rightside,
rightside,
rightside,
rightside,
rightside,
rightside,
rightside,
rightside,
rightside,
rightside,
rightside,
leftside,
leftside,
leftside,
rightside,
crossbar,
rightside,
rightside,
shiftdown,
rightside,
rightside,
rightside,
rightside,
rightside,
rightside,
rightside,
rightside,
rightside,
rightside,
rightside,
rightside,
rightside,
rightside,
rightside,
rightside,
rightside,
rightside,
crossbar,
rightside,
rightside,
rightside,
rightside,
rightside,
rightside,
rightside,
rightside,
rightside,
rightside,
rightside,
rightside,
rightside,
rightside,
rightside,
rightside,
rightside,
rightside,
rightside
);
0C3ytxLmQy = (
rightside,
rightside,
rightside,
rightside,
rightside,
rightside,
rightside,
rightside
);
3nCTj46eZY = (
rightside,
crossbar,
rightside,
rightside,
shiftdown,
rightside,
rightside,
rightside,
rightside,
rightside,
rightside,
rightside,
rightside,
rightside,
rightside,
rightside,
rightside,
rightside,
rightside,
rightside,
rightside,
rightside,
rightside,
crossbar,
rightside,
rightside,
rightside,
rightside,
rightside,
rightside,
rightside,
rightside,
rightside,
rightside,
rightside,
rightside,
rightside,
rightside,
rightside,
rightside,
rightside,
rightside,
rightside
);
8B2JVN8ZLJ = (
rightside,
rightside,
rightside,
rightside,
rightside,
rightside,
rightside,
rightside
);
8rex52NyWa = (
rightside,
crossbar,
rightside,
rightside,
rightside,
rightside,
rightside,
rightside,
rightside,
rightside,
rightside,
rightside,
rightside,
rightside,
rightside,
rightside,
rightside,
rightside,
rightside,
rightside,
rightside
);
BK8t8NwvTJ = (
rightside,
crossbar,
shiftstem,
rightside,
rightside,
shiftdown,
rightside,
rightside,
rightside,
rightside,
rightside,
rightside,
rightside,
rightside,
rightside,
rightside,
rightside,
rightside,
rightside,
rightside,
rightside,
rightside,
rightside,
rightside,
crossbar,
rightside,
rightside,
rightside,
rightside,
rightside,
rightside,
rightside,
rightside,
rightside,
rightside,
rightside,
rightside,
rightside,
rightside,
rightside,
rightside,
rightside,
rightside,
rightside,
rightside,
crossbar,
rightside,
rightside,
shiftdown,
rightside,
rightside,
rightside,
rightside,
rightside,
rightside,
rightside,
rightside,
rightside,
rightside,
rightside,
rightside,
rightside,
rightside,
rightside,
rightside,
rightside,
rightside,
crossbar,
rightside,
rightside,
rightside,
rightside,
rightside,
rightside,
rightside,
rightside,
rightside,
rightside,
rightside,
rightside,
rightside,
rightside,
rightside,
rightside,
rightside,
rightside,
rightside,
leftside,
leftside,
leftside,
rightside,
crossbar,
rightside,
rightside,
shiftdown,
rightside,
rightside,
rightside,
rightside,
rightside,
rightside,
rightside,
rightside,
rightside,
rightside,
rightside,
rightside,
rightside,
rightside,
rightside,
rightside,
rightside,
rightside,
crossbar,
rightside,
rightside,
rightside,
rightside,
rightside,
rightside,
rightside,
rightside,
rightside,
rightside,
rightside,
rightside,
rightside,
rightside,
rightside,
rightside,
rightside,
rightside,
rightside
);
CxPWfAz72K = (
rightside,
crossbar,
rightside,
rightside,
shiftdown,
rightside,
rightside,
rightside,
rightside,
rightside,
rightside,
rightside,
rightside,
rightside,
rightside,
rightside,
rightside,
rightside,
rightside,
rightside,
rightside,
rightside,
rightside,
crossbar,
rightside,
rightside,
rightside,
rightside,
rightside,
rightside,
rightside,
rightside,
rightside,
rightside,
rightside,
rightside,
rightside,
rightside,
rightside,
rightside,
rightside,
rightside,
rightside
);
DkNGLrNVA4 = (
rightside,
crossbar,
rightside,
rightside,
rightside,
rightside,
rightside,
rightside,
rightside,
rightside,
rightside,
rightside,
rightside,
rightside,
rightside,
rightside,
rightside,
rightside,
rightside,
rightside,
rightside
);
HNKsGz9B03 = (
rightside,
crossbar,
rightside,
rightside,
shiftdown,
rightside,
rightside,
rightside,
rightside,
rightside,
rightside,
rightside,
rightside,
rightside,
rightside,
rightside,
rightside,
rightside,
rightside,
rightside,
rightside,
rightside,
rightside,
crossbar,
rightside,
rightside,
rightside,
rightside,
rightside,
rightside,
rightside,
rightside,
rightside,
rightside,
rightside,
rightside,
rightside,
rightside,
rightside,
rightside,
rightside,
rightside,
rightside
);
Mtb7ldvxRR = (
rightside,
rightside,
rightside,
rightside,
rightside,
rightside,
rightside,
rightside
);
PhwuN5iOza = (
rightside,
crossbar,
rightside,
rightside,
shiftdown,
rightside,
rightside,
rightside,
rightside,
rightside,
rightside,
rightside,
rightside,
rightside,
rightside,
rightside,
rightside,
rightside,
rightside,
rightside,
rightside,
rightside,
rightside,
crossbar,
rightside,
rightside,
rightside,
rightside,
rightside,
rightside,
rightside,
rightside,
rightside,
rightside,
rightside,
rightside,
rightside,
rightside,
rightside,
rightside,
rightside,
rightside,
rightside
);
gruPC0rm4E = (
rightside,
crossbar,
shiftstem,
rightside,
rightside,
shiftdown,
rightside,
rightside,
rightside,
rightside,
rightside,
rightside,
rightside,
rightside,
rightside,
rightside,
rightside,
rightside,
rightside,
rightside,
rightside,
rightside,
rightside,
rightside,
crossbar,
rightside,
rightside,
rightside,
rightside,
rightside,
rightside,
rightside,
rightside,
rightside,
rightside,
rightside,
rightside,
rightside,
rightside,
rightside,
rightside,
rightside,
rightside,
rightside,
rightside,
crossbar,
rightside,
rightside,
shiftdown,
rightside,
rightside,
rightside,
rightside,
rightside,
rightside,
rightside,
rightside,
rightside,
rightside,
rightside,
rightside,
rightside,
rightside,
rightside,
rightside,
rightside,
rightside,
crossbar,
rightside,
rightside,
rightside,
rightside,
rightside,
rightside,
rightside,
rightside,
rightside,
rightside,
rightside,
rightside,
rightside,
rightside,
rightside,
rightside,
rightside,
rightside,
rightside,
leftside,
leftside,
leftside,
rightside,
crossbar,
rightside,
rightside,
shiftdown,
rightside,
rightside,
rightside,
rightside,
rightside,
rightside,
rightside,
rightside,
rightside,
rightside,
rightside,
rightside,
rightside,
rightside,
rightside,
rightside,
rightside,
rightside,
crossbar,
rightside,
rightside,
rightside,
rightside,
rightside,
rightside,
rightside,
rightside,
rightside,
rightside,
rightside,
rightside,
rightside,
rightside,
rightside,
rightside,
rightside,
rightside,
rightside
);
gyWZd1V7bg = (
rightside,
rightside,
rightside,
rightside,
rightside,
rightside,
rightside,
rightside
);
oP4AYTo8BD = (
rightside,
rightside,
rightside,
rightside,
rightside,
rightside,
rightside,
rightside
);
p5qGxSYyHQ = (
rightside,
crossbar,
shiftstem,
rightside,
rightside,
shiftdown,
rightside,
rightside,
rightside,
rightside,
rightside,
rightside,
rightside,
rightside,
rightside,
rightside,
rightside,
rightside,
rightside,
rightside,
rightside,
rightside,
rightside,
rightside,
crossbar,
rightside,
rightside,
rightside,
rightside,
rightside,
rightside,
rightside,
rightside,
rightside,
rightside,
rightside,
rightside,
rightside,
rightside,
rightside,
rightside,
rightside,
rightside,
rightside,
rightside,
crossbar,
rightside,
rightside,
shiftdown,
rightside,
rightside,
rightside,
rightside,
rightside,
rightside,
rightside,
rightside,
rightside,
rightside,
rightside,
rightside,
rightside,
rightside,
rightside,
rightside,
rightside,
rightside,
crossbar,
rightside,
rightside,
rightside,
rightside,
rightside,
rightside,
rightside,
rightside,
rightside,
rightside,
rightside,
rightside,
rightside,
rightside,
rightside,
rightside,
rightside,
rightside,
rightside,
leftside,
leftside,
leftside,
rightside,
crossbar,
rightside,
rightside,
shiftdown,
rightside,
rightside,
rightside,
rightside,
rightside,
rightside,
rightside,
rightside,
rightside,
rightside,
rightside,
rightside,
rightside,
rightside,
rightside,
rightside,
rightside,
rightside,
crossbar,
rightside,
rightside,
rightside,
rightside,
rightside,
rightside,
rightside,
rightside,
rightside,
rightside,
rightside,
rightside,
rightside,
rightside,
rightside,
rightside,
rightside,
rightside,
rightside
);
q5MpLm6pYB = (
rightside,
crossbar,
shiftstem,
rightside,
rightside,
shiftdown,
rightside,
rightside,
rightside,
rightside,
rightside,
rightside,
rightside,
rightside,
rightside,
rightside,
rightside,
rightside,
rightside,
rightside,
rightside,
rightside,
rightside,
rightside,
crossbar,
rightside,
rightside,
rightside,
rightside,
rightside,
rightside,
rightside,
rightside,
rightside,
rightside,
rightside,
rightside,
rightside,
rightside,
rightside,
rightside,
rightside,
rightside,
rightside,
rightside,
crossbar,
rightside,
rightside,
shiftdown,
rightside,
rightside,
rightside,
rightside,
rightside,
rightside,
rightside,
rightside,
rightside,
rightside,
rightside,
rightside,
rightside,
rightside,
rightside,
rightside,
rightside,
rightside,
crossbar,
rightside,
rightside,
rightside,
rightside,
rightside,
rightside,
rightside,
rightside,
rightside,
rightside,
rightside,
rightside,
rightside,
rightside,
rightside,
rightside,
rightside,
rightside,
rightside,
leftside,
leftside,
leftside,
rightside,
crossbar,
rightside,
rightside,
shiftdown,
rightside,
rightside,
rightside,
rightside,
rightside,
rightside,
rightside,
rightside,
rightside,
rightside,
rightside,
rightside,
rightside,
rightside,
rightside,
rightside,
rightside,
rightside,
crossbar,
rightside,
rightside,
rightside,
rightside,
rightside,
rightside,
rightside,
rightside,
rightside,
rightside,
rightside,
rightside,
rightside,
rightside,
rightside,
rightside,
rightside,
rightside,
rightside
);
sayqGOMtzs = (
rightside,
crossbar,
shiftstem,
rightside,
rightside,
shiftdown,
rightside,
rightside,
rightside,
rightside,
rightside,
rightside,
rightside,
rightside,
rightside,
rightside,
rightside,
rightside,
rightside,
rightside,
rightside,
rightside,
rightside,
rightside,
crossbar,
rightside,
rightside,
rightside,
rightside,
rightside,
rightside,
rightside,
rightside,
rightside,
rightside,
rightside,
rightside,
rightside,
rightside,
rightside,
rightside,
rightside,
rightside,
rightside,
rightside,
crossbar,
rightside,
rightside,
shiftdown,
rightside,
rightside,
rightside,
rightside,
rightside,
rightside,
rightside,
rightside,
rightside,
rightside,
rightside,
rightside,
rightside,
rightside,
rightside,
rightside,
rightside,
rightside,
crossbar,
rightside,
rightside,
rightside,
rightside,
rightside,
rightside,
rightside,
rightside,
rightside,
rightside,
rightside,
rightside,
rightside,
rightside,
rightside,
rightside,
rightside,
rightside,
rightside,
leftside,
leftside,
leftside,
rightside,
crossbar,
rightside,
rightside,
shiftdown,
rightside,
rightside,
rightside,
rightside,
rightside,
rightside,
rightside,
rightside,
rightside,
rightside,
rightside,
rightside,
rightside,
rightside,
rightside,
rightside,
rightside,
rightside,
crossbar,
rightside,
rightside,
rightside,
rightside,
rightside,
rightside,
rightside,
rightside,
rightside,
rightside,
rightside,
rightside,
rightside,
rightside,
rightside,
rightside,
rightside,
rightside,
rightside
);
};
};
width = 171;
}
);
unicode = 0047;
},
{
glyphname = H;
layers = (
{
layerId = "1577B97C-DCC5-4AA4-842F-E9BB22E99E3C";
paths = (
{
closed = 1;
nodes = (
"37 0 LINE",
"37 799 LINE",
"128 799 LINE",
"128 0 LINE",
"130 0 LINE",
"130 1600 LINE",
"128 1600 LINE",
"128 801 LINE",
"37 801 LINE",
"37 1600 LINE",
"35 1600 LINE",
"35 0 LINE"
);
}
);
userData = {
com.schriftgestaltung.Glyphs.lastChange = "2019-04-28 05:35:59 +0000";
com.typemytype.robofont.pointLabels = {
7JgTtdb0jg = (
LEFTSIDEINSIDE,
LEFTSIDEINSIDE,
RIGHTSTEM,
RIGHTSTEM,
CROSSBAR,
CROSSBARBOTTOM,
RIGHTSIDEINSIDE,
RIGHTSTEM,
RIGHTSTEM,
RIGHTSTEM,
RIGHTSTEM,
RIGHTSIDEINSIDE,
RIGHTSTEM,
RIGHTSTEM,
LEFTSIDEINSIDE,
LEFTSIDEINSIDE,
LEFTSIDEINSIDE,
RIGHTSTEM,
RIGHTSTEM,
CROSSBAR,
RIGHTSIDEINSIDE,
RIGHTSTEM,
RIGHTSTEM,
RIGHTSTEM,
RIGHTSTEM,
RIGHTSIDEINSIDE,
RIGHTSTEM,
RIGHTSTEM,
LEFTSIDEINSIDE
);
8OglXgblhr = (
RIGHTSTEM,
RIGHTSTEM,
RIGHTSIDEOUTSIDE
);
MTAeavIVWY = (
LEFTSIDEINSIDE,
LEFTSIDEINSIDE,
RIGHTSTEM,
RIGHTSTEM,
CROSSBARTOP,
CROSSBAR,
RIGHTSIDEINSIDE,
RIGHTSTEM,
RIGHTSTEM,
RIGHTSTEM,
RIGHTSTEM,
RIGHTSIDEINSIDE,
RIGHTSTEM,
RIGHTSTEM,
LEFTSIDEINSIDE,
LEFTSIDEINSIDE,
LEFTSIDEINSIDE,
RIGHTSTEM,
RIGHTSTEM,
CROSSBAR,
RIGHTSIDEINSIDE,
RIGHTSTEM,
RIGHTSTEM,
RIGHTSTEM,
RIGHTSTEM,
RIGHTSIDEINSIDE,
RIGHTSTEM,
RIGHTSTEM,
LEFTSIDEINSIDE
);
QjywsYY2yB = (
LEFTSIDEINSIDE,
LEFTSIDEINSIDE,
RIGHTSTEM,
RIGHTSTEM,
CROSSBAR,
CROSSBARBOTTOM,
RIGHTSIDEINSIDE,
RIGHTSTEM,
RIGHTSTEM,
RIGHTSTEM,
RIGHTSTEM,
RIGHTSIDEINSIDE,
RIGHTSTEM,
RIGHTSTEM,
LEFTSIDEINSIDE,
LEFTSIDEINSIDE,
LEFTSIDEINSIDE,
RIGHTSTEM,
RIGHTSTEM,
CROSSBAR,
RIGHTSIDEINSIDE,
RIGHTSTEM,
RIGHTSTEM,
RIGHTSTEM,
RIGHTSTEM,
RIGHTSIDEINSIDE,
RIGHTSTEM,
RIGHTSTEM,
LEFTSIDEINSIDE
);
UPaHY3UudR = (
LEFTSIDEINSIDE
);
WUaPOcaxKT = (
LEFTSIDEINSIDE,
LEFTSIDEINSIDE
);
ZnCDQVdtyD = (
LEFTSIDEOUTSIDE
);
db0bPhBdaU = (
RIGHTSTEM,
RIGHTSTEM,
RIGHTSIDEINSIDE,
RIGHTSTEM,
RIGHTSTEM
);
lggLiivmLt = (
LEFTSIDEINSIDE,
LEFTSIDEINSIDE,
RIGHTSTEM,
RIGHTSTEM,
CROSSBARTOP,
CROSSBAR,
RIGHTSIDEINSIDE,
RIGHTSTEM,
RIGHTSTEM,
RIGHTSTEM,
RIGHTSTEM,
RIGHTSIDEINSIDE,
RIGHTSTEM,
RIGHTSTEM,
LEFTSIDEINSIDE,
LEFTSIDEINSIDE,
LEFTSIDEINSIDE,
RIGHTSTEM,
RIGHTSTEM,
CROSSBAR,
RIGHTSIDEINSIDE,
RIGHTSTEM,
RIGHTSTEM,
RIGHTSTEM,
RIGHTSTEM,
RIGHTSIDEINSIDE,
RIGHTSTEM,
RIGHTSTEM,
LEFTSIDEINSIDE
);
njzlIRBsoY = (
RIGHTSTEM,
RIGHTSTEM,
RIGHTSIDEINSIDE,
RIGHTSTEM,
RIGHTSTEM
);
oOtn61SmRY = (
RIGHTSTEM,
RIGHTSTEM,
RIGHTSIDEOUTSIDE
);
uqAJBjDIOT = (
LEFTSIDEOUTSIDE
);
};
};
width = 165;
}
);
unicode = 0048;
},
{
glyphname = I;
layers = (
{
layerId = "1577B97C-DCC5-4AA4-842F-E9BB22E99E3C";
paths = (
{
closed = 1;
nodes = (
"130 0 LINE",
"130 2 LINE",
"75 2 LINE",
"75 1598 LINE",
"130 1598 LINE",
"130 1600 LINE",
"18 1600 LINE",
"18 1598 LINE",
"73 1598 LINE",
"73 2 LINE",
"18 2 LINE",
"18 0 LINE"
);
}
);
userData = {
com.schriftgestaltung.Glyphs.lastChange = "2019-04-28 05:35:59 +0000";
com.typemytype.robofont.pointLabels = {
1Ty0JfMohF = (
INSIDETOP,
INSIDETOP,
RIGHTSTEM,
RIGHTSIDEOUTSIDE,
RIGHTSIDEOUTSIDE,
RIGHTSIDEOUTSIDE,
LEFTSIDEOUTSIDE,
LEFTSIDEOUTSIDE,
INSIDEBOTTOM,
RIGHTSIDEOUTSIDE,
RIGHTSIDEOUTSIDE,
LEFTSIDEOUTSIDE,
LEFTSIDEOUTSIDE,
RIGHTSIDEOUTSIDE,
RIGHTSIDEOUTSIDE,
LEFTSIDEOUTSIDE,
LEFTSIDEOUTSIDE,
RIGHTSIDEOUTSIDE,
RIGHTSIDEOUTSIDE,
LEFTSIDEOUTSIDE,
LEFTSIDEOUTSIDE,
INSIDETOP,
INSIDETOP,
RIGHTSIDEOUTSIDE,
RIGHTSIDEOUTSIDE
);
1m237t4hyw = (
RIGHTSIDEOUTSIDE,
RIGHTSIDEOUTSIDE,
LEFTSIDEOUTSIDE,
LEFTSIDEOUTSIDE,
INSIDEBOTTOM,
RIGHTSIDEOUTSIDE,
RIGHTSIDEOUTSIDE,
LEFTSIDEOUTSIDE,
LEFTSIDEOUTSIDE,
RIGHTSIDEOUTSIDE,
RIGHTSIDEOUTSIDE,
LEFTSIDEOUTSIDE,
LEFTSIDEOUTSIDE,
RIGHTSIDEOUTSIDE,
RIGHTSIDEOUTSIDE,
LEFTSIDEOUTSIDE,
LEFTSIDEOUTSIDE
);
9RiQmr3G8U = (
INSIDETOP,
INSIDETOP,
RIGHTSTEM,
RIGHTSIDEOUTSIDE,
RIGHTSIDEOUTSIDE,
RIGHTSIDEOUTSIDE,
LEFTSIDEOUTSIDE,
LEFTSIDEOUTSIDE,
INSIDEBOTTOM,
RIGHTSIDEOUTSIDE,
RIGHTSIDEOUTSIDE,
LEFTSIDEOUTSIDE,
LEFTSIDEOUTSIDE,
RIGHTSIDEOUTSIDE,
RIGHTSIDEOUTSIDE,
LEFTSIDEOUTSIDE,
LEFTSIDEOUTSIDE,
RIGHTSIDEOUTSIDE,
RIGHTSIDEOUTSIDE,
LEFTSIDEOUTSIDE,
LEFTSIDEOUTSIDE,
INSIDETOP,
INSIDETOP,
RIGHTSIDEOUTSIDE,
RIGHTSIDEOUTSIDE
);
G11nOl1a96 = (
ri
);
LJaww9hqQY = (
leftside
);
O5ZoWKLuW7 = (
INSIDETOP,
RIGHTSTEM,
INSIDETOP,
LEFTSIDEOUTSIDE,
LEFTSIDEOUTSIDE,
INSIDETOP,
INSIDETOP,
LEFTSIDEOUTSIDE,
RIGHTSIDEOUTSIDE,
RIGHTSIDEOUTSIDE,
LEFTSIDEOUTSIDE,
LEFTSIDEOUTSIDE,
INSIDEBOTTOM,
RIGHTSIDEOUTSIDE,
RIGHTSIDEOUTSIDE,
LEFTSIDEOUTSIDE,
LEFTSIDEOUTSIDE,
RIGHTSIDEOUTSIDE,
RIGHTSIDEOUTSIDE,
LEFTSIDEOUTSIDE,
LEFTSIDEOUTSIDE,
RIGHTSIDEOUTSIDE,
RIGHTSIDEOUTSIDE,
LEFTSIDEOUTSIDE,
LEFTSIDEOUTSIDE
);
PL3Zqx19x8 = (
INSIDETOP,
RIGHTSTEM,
INSIDETOP,
LEFTSIDEOUTSIDE,
LEFTSIDEOUTSIDE,
INSIDETOP,
INSIDETOP,
LEFTSIDEOUTSIDE,
RIGHTSIDEOUTSIDE,
RIGHTSIDEOUTSIDE,
LEFTSIDEOUTSIDE,
LEFTSIDEOUTSIDE,
INSIDEBOTTOM,
RIGHTSIDEOUTSIDE,
RIGHTSIDEOUTSIDE,
LEFTSIDEOUTSIDE,
LEFTSIDEOUTSIDE,
RIGHTSIDEOUTSIDE,
RIGHTSIDEOUTSIDE,
LEFTSIDEOUTSIDE,
LEFTSIDEOUTSIDE,
RIGHTSIDEOUTSIDE,
RIGHTSIDEOUTSIDE,
LEFTSIDEOUTSIDE,
LEFTSIDEOUTSIDE
);
S4rO5KuHiL = (
RIGHTSIDEOUTSIDE,
RIGHTSIDEOUTSIDE,
LEFTSIDEOUTSIDE,
LEFTSIDEOUTSIDE,
INSIDEBOTTOM,
RIGHTSIDEOUTSIDE,
RIGHTSIDEOUTSIDE,
LEFTSIDEOUTSIDE,
LEFTSIDEOUTSIDE,
RIGHTSIDEOUTSIDE,
RIGHTSIDEOUTSIDE,
LEFTSIDEOUTSIDE,
LEFTSIDEOUTSIDE,
RIGHTSIDEOUTSIDE,
RIGHTSIDEOUTSIDE,
LEFTSIDEOUTSIDE,
LEFTSIDEOUTSIDE
);
aCoxe3fSmw = (
INSIDETOP,
RIGHTSTEM,
INSIDETOP,
LEFTSIDEOUTSIDE,
LEFTSIDEOUTSIDE,
INSIDETOP,
INSIDETOP,
LEFTSIDEOUTSIDE,
RIGHTSIDEOUTSIDE,
RIGHTSIDEOUTSIDE,
LEFTSIDEOUTSIDE,
LEFTSIDEOUTSIDE,
INSIDEBOTTOM,
RIGHTSIDEOUTSIDE,
RIGHTSIDEOUTSIDE,
LEFTSIDEOUTSIDE,
LEFTSIDEOUTSIDE,
RIGHTSIDEOUTSIDE,
RIGHTSIDEOUTSIDE,
LEFTSIDEOUTSIDE,
LEFTSIDEOUTSIDE,
RIGHTSIDEOUTSIDE,
RIGHTSIDEOUTSIDE,
LEFTSIDEOUTSIDE,
LEFTSIDEOUTSIDE
);
jRE4QRN7r7 = (
ri
);
jZjJqwR81q = (
INSIDETOP,
INSIDETOP,
RIGHTSTEM,
RIGHTSIDEOUTSIDE,
RIGHTSIDEOUTSIDE,
RIGHTSIDEOUTSIDE,
LEFTSIDEOUTSIDE,
LEFTSIDEOUTSIDE,
INSIDEBOTTOM,
RIGHTSIDEOUTSIDE,
RIGHTSIDEOUTSIDE,
LEFTSIDEOUTSIDE,
LEFTSIDEOUTSIDE,
RIGHTSIDEOUTSIDE,
RIGHTSIDEOUTSIDE,
LEFTSIDEOUTSIDE,
LEFTSIDEOUTSIDE,
RIGHTSIDEOUTSIDE,
RIGHTSIDEOUTSIDE,
LEFTSIDEOUTSIDE,
LEFTSIDEOUTSIDE,
INSIDETOP,
INSIDETOP,
RIGHTSIDEOUTSIDE,
RIGHTSIDEOUTSIDE
);
quzaPWszgr = (
INSIDETOP,
INSIDETOP,
RIGHTSTEM,
RIGHTSIDEOUTSIDE,
RIGHTSIDEOUTSIDE,
RIGHTSIDEOUTSIDE,
LEFTSIDEOUTSIDE,
LEFTSIDEOUTSIDE,
INSIDEBOTTOM,
RIGHTSIDEOUTSIDE,
RIGHTSIDEOUTSIDE,
LEFTSIDEOUTSIDE,
LEFTSIDEOUTSIDE,
RIGHTSIDEOUTSIDE,
RIGHTSIDEOUTSIDE,
LEFTSIDEOUTSIDE,
LEFTSIDEOUTSIDE,
RIGHTSIDEOUTSIDE,
RIGHTSIDEOUTSIDE,
LEFTSIDEOUTSIDE,
LEFTSIDEOUTSIDE,
INSIDETOP,
INSIDETOP,
RIGHTSIDEOUTSIDE,
RIGHTSIDEOUTSIDE
);
rhZOX8XKiW = (
leftside
);
u8XZE2STzL = (
INSIDETOP,
RIGHTSTEM,
INSIDETOP,
LEFTSIDEOUTSIDE,
LEFTSIDEOUTSIDE,
INSIDETOP,
INSIDETOP,
LEFTSIDEOUTSIDE,
RIGHTSIDEOUTSIDE,
RIGHTSIDEOUTSIDE,
LEFTSIDEOUTSIDE,
LEFTSIDEOUTSIDE,
INSIDEBOTTOM,
RIGHTSIDEOUTSIDE,
RIGHTSIDEOUTSIDE,
LEFTSIDEOUTSIDE,
LEFTSIDEOUTSIDE,
RIGHTSIDEOUTSIDE,
RIGHTSIDEOUTSIDE,
LEFTSIDEOUTSIDE,
LEFTSIDEOUTSIDE,
RIGHTSIDEOUTSIDE,
RIGHTSIDEOUTSIDE,
LEFTSIDEOUTSIDE,
LEFTSIDEOUTSIDE
);
v7N4yg5XNk = (
INSIDETOP,
INSIDETOP,
RIGHTSIDEOUTSIDE
);
zfocDyDTCM = (
INSIDETOP,
INSIDETOP,
LEFTSIDEOUTSIDE
);
};
};
width = 148;
}
);
unicode = 0049;
},
{
glyphname = J;
layers = (
{
layerId = "1577B97C-DCC5-4AA4-842F-E9BB22E99E3C";
paths = (
{
closed = 1;
nodes = (
"108 0 LINE",
"108 1600 LINE",
"106 1600 LINE",
"106 2 LINE",
"35 2 LINE",
"35 570 LINE",
"33 570 LINE",
"33 0 LINE"
);
}
);
userData = {
com.schriftgestaltung.Glyphs.lastChange = "2019-04-28 12:46:30 +0000";
com.typemytype.robofont.pointLabels = {
AdYfGKx8QJ = (
LEFTSIDEOUTSIDE,
RIGHTSIDEINSIDE,
INSIDETOP
);
TbrXnCyMEi = (
LEFTSIDEOUTSIDE
);
};
};
width = 155;
}
);
unicode = 004A;
},
{
glyphname = K;
layers = (
{
layerId = "1577B97C-DCC5-4AA4-842F-E9BB22E99E3C";
paths = (
{
closed = 1;
nodes = (
"49 799 LINE",
"141 799 LINE",
"141 0 LINE",
"143 0 LINE",
"143 801 LINE",
"98 801 LINE",
"140 1599 LINE",
"138 1600 LINE",
"96 801 LINE",
"49 801 LINE",
"49 1600 LINE",
"47 1600 LINE",
"47 0 LINE",
"49 0 LINE"
);
}
);
userData = {
com.schriftgestaltung.Glyphs.lastChange = "2019-04-28 05:35:59 +0000";
com.typemytype.robofont.pointLabels = {
0mqLpz5vAU = (
leftside,
rightside,
shiftdown,
rightside,
crossbar,
shiftstem,
rightside,
rightside,
crossbar,
rightside,
rightside,
crossbar,
leftside
);
8uJIZj54GB = (
rightside,
rightside,
crossbar
);
AJFybwtISS = (
leftside,
rightside,
shiftdown,
rightside,
crossbar,
shiftstem,
rightside,
rightside,
crossbar,
rightside,
rightside,
crossbar,
leftside
);
I87sAwdtGu = (
leftside,
rightside,
shiftdown,
rightside,
crossbar,
shiftstem,
rightside,
rightside,
crossbar,
rightside,
rightside,
crossbar,
leftside
);
RNULHVAYqp = (
rightside
);
UTjU3L1PPB = (
leftside,
rightside,
shiftdown,
rightside,
crossbar,
shiftstem,
rightside,
rightside,
crossbar,
rightside,
rightside,
crossbar,
leftside
);
e8AHcRxH3I = (
rightside,
rightside,
crossbar
);
eNRdyfM1oC = (
rightside
);
nN62QTbZwT = (
rightside,
shiftdown,
rightside,
crossbar,
rightside,
rightside,
crossbar
);
nj0bO2yqxJ = (
rightside,
rightside,
crossbar
);
qeJQMGx6zx = (
rightside,
rightside,
crossbar
);
tRv54mralF = (
leftside,
rightside,
shiftdown,
rightside,
crossbar,
shiftstem,
rightside,
rightside,
crossbar,
rightside,
rightside,
crossbar,
leftside
);
up9uIbzma1 = (
rightside,
rightside,
crossbar
);
xRsK7LwvCP = (
rightside,
shiftdown,
rightside,
crossbar,
rightside,
rightside,
crossbar
);
xj8qIf4v8s = (
leftside,
rightside,
shiftdown,
rightside,
crossbar,
shiftstem,
rightside,
rightside,
crossbar,
rightside,
rightside,
crossbar,
leftside
);
};
};
width = 172;
}
);
unicode = 004B;
},
{
glyphname = L;
layers = (
{
layerId = "1577B97C-DCC5-4AA4-842F-E9BB22E99E3C";
paths = (
{
closed = 1;
nodes = (
"47 1600 LINE",
"49 1600 LINE",
"49 2 LINE",
"120 2 LINE",
"120 570 LINE",
"122 570 LINE",
"122 0 LINE",
"47 0 LINE"
);
}
);
userData = {
com.schriftgestaltung.Glyphs.lastChange = "2019-04-28 11:50:14 +0000";
com.typemytype.robofont.pointLabels = {
82EXZEgt46 = (
RIGHTSTEM,
RIGHTSTEM,
RIGHTSIDEOUTSIDE
);
FWtbMMY8Ck = (
rightside
);
MbxRZRd8vz = (
INSIDEBOTTOM,
LEFTSIDEINSIDE,
LEFTSIDEINSIDE
);
VYRt9kHZtP = (
RIGHTSTEM,
RIGHTSTEM,
RIGHTSIDEOUTSIDE
);
XFf4mMUzYo = (
LEFTSIDEOUTSIDE
);
XkJNfQlnnt = (
LEFTSIDEOUTSIDE
);
cqpSxwFiM3 = (
RIGHTSTEM,
RIGHTSTEM,
RIGHTSIDEINSIDE,
INSIDEBOTTOM
);
lYiaKSKITt = (
INSIDEBOTTOM,
LEFTSIDEINSIDE,
LEFTSIDEINSIDE
);
scG1IXtWvJ = (
rightside
);
t7Q9RRLHt8 = (
RIGHTSTEM,
RIGHTSTEM,
RIGHTSIDEINSIDE
);
};
};
width = 155;
}
);
unicode = 004C;
},
{
glyphname = M;
layers = (
{
layerId = "1577B97C-DCC5-4AA4-842F-E9BB22E99E3C";
paths = (
{
closed = 1;
nodes = (
"33 0 LINE",
"33 1437 LINE",
"67 1598 LINE",
"116 1598 LINE",
"116 0 LINE",
"118 0 LINE",
"118 1600 LINE",
"65 1600 LINE",
"31 1438 LINE",
"31 0 LINE"
);
},
{
closed = 1;
nodes = (
"199 0 LINE",
"199 1600 LINE",
"151 1600 LINE",
"112 1600 LINE",
"112 1598 LINE",
"197 1598 LINE",
"197 0 LINE"
);
}
);
userData = {
com.schriftgestaltung.Glyphs.lastChange = "2019-04-28 05:35:59 +0000";
com.typemytype.robofont.pointLabels = {
0IVF7y8NCN = (
leftside,
leftside,
rightside,
rightside,
shiftstem,
leftside,
shiftdown,
leftside,
rightside,
rightside,
shiftstem,
leftside,
leftside,
rightside,
rightside,
shiftstem,
leftside,
leftside,
rightside,
rightside,
shiftstem
);
5TFRebmDRK = (
leftside,
leftside,
rightside,
rightside,
shiftstem
);
czpj5jP2o1 = (
leftside,
leftside,
rightside,
rightside,
shiftstem
);
hvBQuBUzS5 = (
leftside,
leftside,
rightside,
rightside,
shiftstem
);
l3jugDCgZp = (
leftside,
leftside,
rightside,
rightside,
shiftstem
);
q5rffo9NOb = (
leftside,
leftside,
rightside,
rightside,
shiftstem,
leftside,
shiftdown,
leftside,
rightside,
rightside,
shiftstem,
leftside,
leftside,
rightside,
rightside,
shiftstem,
leftside,
leftside,
rightside,
rightside,
shiftstem
);
rc1RBgs7MK = (
leftside,
leftside,
rightside,
rightside,
shiftstem
);
rfY4yi4WM7 = (
leftside,
leftside,
rightside,
rightside,
shiftstem
);
};
};
width = 234;
}
);
unicode = 004D;
},
{
glyphname = N;
layers = (
{
layerId = "1577B97C-DCC5-4AA4-842F-E9BB22E99E3C";
paths = (
{
closed = 1;
nodes = (
"33 0 LINE",
"33 1437 LINE",
"67 1598 LINE",
"122 1598 LINE",
"122 0 LINE",
"124 0 LINE",
"124 1600 LINE",
"65 1600 LINE",
"31 1438 LINE",
"31 0 LINE"
);
}
);
userData = {
com.schriftgestaltung.Glyphs.lastChange = "2019-04-28 05:35:59 +0000";
com.typemytype.robofont.pointLabels = {
1omi5wQQzW = (
shiftstem
);
3Nbopwznvn = (
RIGHTSTEM
);
7wBal5jvPQ = (
shiftstem,
shiftstem,
shiftdown
);
DYg9JHyygg = (
shiftstem,
shiftstem,
shiftdown
);
HgG4gyE7AV = (
shiftstem,
shiftstem,
shiftdown
);
Icsrkoeq5r = (
leftside
);
MUSJPjCIXg = (
RIGHTSTEM,
RIGHTSTEM,
RIGHTSIDEINSIDE
);
MWbbTwGkbG = (
leftside
);
Mm9MihPC9S = (
shiftstem,
shiftstem,
rightside
);
RZjfuiFaWd = (
shiftstem,
shiftstem,
shiftdown
);
VILP20cFmq = (
RIGHTSTEM,
RIGHTSTEM,
RIGHTSIDEINSIDE
);
XRdLFXiM4t = (
RIGHTSTEM,
RIGHTSTEM,
RIGHTSIDEOUTSIDE
);
ZsB4bFWMAS = (
shiftstem,
shiftstem,
rightside
);
j2qkgH7CJF = (
shiftstem
);
uKfuudIUvA = (
RIGHTSTEM,
RIGHTSTEM,
RIGHTSIDEOUTSIDE
);
z5b04GDwRN = (
RIGHTSTEM
);
};
};
width = 160;
}
);
unicode = 004E;
},
{
glyphname = O;
layers = (
{
layerId = "1577B97C-DCC5-4AA4-842F-E9BB22E99E3C";
paths = (
{
closed = 1;
nodes = (
"129 1600 LINE",
"65 1600 LINE",
"31 1438 LINE",
"31 0 LINE",
"95 0 LINE",
"129 163 LINE"
);
},
{
closed = 1;
nodes = (
"93 2 LINE",
"33 2 LINE",
"33 1437 LINE",
"67 1598 LINE",
"127 1598 LINE",
"127 163 LINE"
);
}
);
userData = {
com.schriftgestaltung.Glyphs.lastChange = "2019-08-12 16:07:16 +0000";
com.typemytype.robofont.pointLabels = {
SnrsQD5TLy = (
RIGHTSTEM
);
c9brEFyXXA = (
RIGHTSTEM
);
dfgNHTgBfR = (
RIGHTSTEM
);
g70r2r6DwY = (
RIGHTSTEM
);
jjd5iRDXWT = (
RIGHTSTEM
);
ob8US3C311 = (
RIGHTSTEM
);
};
};
width = 160;
}
);
unicode = 004F;
},
{
glyphname = P;
layers = (
{
layerId = "1577B97C-DCC5-4AA4-842F-E9BB22E99E3C";
paths = (
{
closed = 1;
nodes = (
"49 0 LINE",
"49 651 LINE",
"105 651 LINE",
"139 811 LINE",
"139 1600 LINE",
"47 1600 LINE",
"47 0 LINE"
);
},
{
closed = 1;
nodes = (
"49 1598 LINE",
"137 1598 LINE",
"137 811 LINE",
"103 653 LINE",
"49 653 LINE"
);
}
);
userData = {
com.schriftgestaltung.Glyphs.lastChange = "2019-04-28 05:35:59 +0000";
com.typemytype.robofont.pointLabels = {
};
};
width = 173;
}
);
unicode = 0050;
},
{
glyphname = Q;
layers = (
{
layerId = "1577B97C-DCC5-4AA4-842F-E9BB22E99E3C";
paths = (
{
closed = 1;
nodes = (
"69 1600 LINE",
"35 1437 LINE",
"35 0 LINE",
"133 0 LINE",
"133 1600 LINE"
);
},
{
closed = 1;
nodes = (
"37 2 LINE",
"37 1438 LINE",
"71 1598 LINE",
"131 1598 LINE",
"131 2 LINE"
);
},
{
closed = 1;
nodes = (
"86 -198 LINE",
"86 2 LINE",
"84 2 LINE",
"84 -198 LINE"
);
}
);
userData = {
com.schriftgestaltung.Glyphs.lastChange = "2019-04-28 05:35:59 +0000";
com.typemytype.robofont.pointLabels = {
2q9VlGka1x = (
rightside,
rightside,
shiftstem,
shiftdown,
shiftdown
);
8lRHbc76vf = (
shiftdown
);
QaOuzaR5Nc = (
shiftdown
);
U6WibAQAUl = (
leftside
);
a4Ql951bxG = (
leftside
);
b9GvAVdrlf = (
shiftdown
);
bEeLKF9K0J = (
rightside,
rightside,
shiftstem,
shiftdown,
shiftdown
);
c9brEFyXXA = (
rightside,
rightside,
shiftstem,
shiftdown,
shiftdown
);
dfgNHTgBfR = (
rightside,
rightside,
shiftstem,
shiftdown,
shiftdown
);
gOQWswYvKT = (
leftside
);
ivebcmARlA = (
leftside
);
kbL68Qh2zr = (
leftside
);
};
};
width = 180;
}
);
unicode = 0051;
},
{
glyphname = R;
layers = (
{
layerId = "1577B97C-DCC5-4AA4-842F-E9BB22E99E3C";
paths = (
{
closed = 1;
nodes = (
"146 0 LINE",
"93 751 LINE",
"91 751 LINE",
"144 -1 LINE"
);
},
{
closed = 1;
nodes = (
"49 0 LINE",
"49 751 LINE",
"105 751 LINE",
"139 911 LINE",
"139 1600 LINE",
"47 1600 LINE",
"47 0 LINE"
);
},
{
closed = 1;
nodes = (
"49 1598 LINE",
"137 1598 LINE",
"137 911 LINE",
"103 753 LINE",
"49 753 LINE"
);
}
);
userData = {
com.schriftgestaltung.Glyphs.lastChange = "2020-10-07 01:15:42 +0000";
com.typemytype.robofont.pointLabels = {
2AKhSOaavW = (
crossbar
);
7iGA9EjrJP = (
crossbar
);
9fBpwr0c5A = (
leftside,
crossbar,
leftside,
crossbar,
crossbar,
shiftstem,
shiftdown,
crossbar,
crossbar,
shiftdown
);
CHVOARGKU2 = (
leftside,
crossbar,
leftside,
crossbar,
crossbar,
shiftstem,
shiftdown,
crossbar,
crossbar,
shiftdown
);
FKSRxBbMyE = (
crossbar
);
JkNiARIXMp = (
crossbar,
crossbar,
shiftdown
);
V9Ywxgiq2G = (
crossbar,
crossbar,
rightside
);
gNqIOGc9HF = (
crossbar,
crossbar,
rightside
);
itimCqoufa = (
leftside,
crossbar,
leftside,
crossbar,
crossbar,
shiftstem,
shiftdown,
crossbar,
crossbar,
shiftdown
);
j4s86nnkOj = (
crossbar,
crossbar,
shiftdown
);
jqqb8BKfoQ = (
leftside,
crossbar,
leftside,
crossbar,
crossbar,
shiftstem,
shiftdown,
crossbar,
crossbar,
shiftdown
);
nPfCo47fuL = (
crossbar,
crossbar,
rightside
);
pOaU6sS7pE = (
leftside,
crossbar,
leftside,
crossbar,
crossbar,
shiftstem,
shiftdown,
crossbar,
crossbar,
shiftdown
);
s4rDE72DYf = (
leftside,
crossbar,
leftside,
crossbar,
crossbar,
shiftstem,
shiftdown,
crossbar,
crossbar,
shiftdown
);
xAUivuY8OU = (
crossbar,
crossbar,
rightside
);
};
};
width = 145;
}
);
unicode = 0052;
},
{
glyphname = S;
layers = (
{
guideLines = (
{
angle = 90;
position = "{20, 836}";
}
);
layerId = "1577B97C-DCC5-4AA4-842F-E9BB22E99E3C";
paths = (
{
closed = 1;
nodes = (
"93 0 LINE",
"126 154 LINE",
"126 801 LINE",
"31 801 LINE",
"31 1438 LINE",
"65 1598 LINE",
"110 1598 LINE",
"110 1040 LINE",
"112 1040 LINE",
"112 1600 LINE",
"63 1600 LINE",
"29 1438 LINE",
"29 799 LINE",
"124 799 LINE",
"124 154 LINE",
"91 2 LINE",
"33 2 LINE",
"33 562 LINE",
"31 562 LINE",
"31 0 LINE"
);
}
);
width = 155;
}
);
unicode = 0053;
},
{
glyphname = T;
layers = (
{
layerId = "1577B97C-DCC5-4AA4-842F-E9BB22E99E3C";
paths = (
{
closed = 1;
nodes = (
"63 0 LINE",
"63 1598 LINE",
"124 1598 LINE",
"124 1600 LINE",
"0 1600 LINE",
"0 1598 LINE",
"61 1598 LINE",
"61 0 LINE"
);
}
);
userData = {
com.schriftgestaltung.Glyphs.lastChange = "2019-04-28 05:35:59 +0000";
com.typemytype.robofont.pointLabels = {
ABe8abv3LE = (
rightside,
leftside,
leftside,
shiftstem,
rightside,
shiftdown,
rightside,
rightside,
leftside,
leftside,
rightside,
shiftdown,
rightside,
leftside,
leftside,
rightside,
shiftdown,
rightside,
leftside,
rightside,
leftside,
leftside,
rightside,
shiftdown,
rightside,
leftside,
leftside,
rightside,
shiftdown,
rightside,
leftside,
leftside,
rightside,
shiftdown,
leftside
);
DJQ7u43twI = (
rightside,
leftside,
leftside,
shiftstem,
rightside,
shiftdown,
rightside,
rightside,
leftside,
leftside,
rightside,
shiftdown,
rightside,
leftside,
leftside,
rightside,
shiftdown,
rightside,
leftside,
rightside,
leftside,
leftside,
rightside,
shiftdown,
rightside,
leftside,
leftside,
rightside,
shiftdown,
rightside,
leftside,
leftside,
rightside,
shiftdown,
leftside
);
J3fH9EFg0z = (
rightside,
leftside,
leftside,
shiftstem,
rightside,
shiftdown,
rightside,
rightside,
leftside,
leftside,
rightside,
shiftdown,
rightside,
leftside,
leftside,
rightside,
shiftdown,
rightside,
leftside,
rightside,
leftside,
leftside,
rightside,
shiftdown,
rightside,
leftside,
leftside,
rightside,
shiftdown,
rightside,
leftside,
leftside,
rightside,
shiftdown,
leftside
);
KjT4D91qvu = (
rightside,
leftside,
leftside,
shiftstem,
rightside,
shiftdown,
rightside,
rightside,
leftside,
leftside,
rightside,
shiftdown,
rightside,
leftside,
leftside,
rightside,
shiftdown,
rightside,
leftside,
rightside,
leftside,
leftside,
rightside,
shiftdown,
rightside,
leftside,
leftside,
rightside,
shiftdown,
rightside,
leftside,
leftside,
rightside,
shiftdown,
leftside
);
PAcKW7vhev = (
rightside,
leftside,
leftside,
shiftstem,
rightside,
shiftdown,
rightside,
rightside,
leftside,
leftside,
rightside,
shiftdown,
rightside,
leftside,
leftside,
rightside,
shiftdown,
rightside,
leftside,
rightside,
leftside,
leftside,
rightside,
shiftdown,
rightside,
leftside,
leftside,
rightside,
shiftdown,
rightside,
leftside,
leftside,
rightside,
shiftdown,
leftside
);
asx7RUXZ8K = (
rightside,
leftside,
leftside,
shiftstem,
rightside,
shiftdown,
rightside,
rightside,
leftside,
leftside,
rightside,
shiftdown,
rightside,
leftside,
leftside,
rightside,
shiftdown,
rightside,
leftside,
rightside,
leftside,
leftside,
rightside,
shiftdown,
rightside,
leftside,
leftside,
rightside,
shiftdown,
rightside,
leftside,
leftside,
rightside,
shiftdown,
leftside
);
jHGwg0m2Tu = (
rightside,
leftside,
leftside,
shiftstem,
rightside,
shiftdown,
rightside,
rightside,
leftside,
leftside,
rightside,
shiftdown,
rightside,
leftside,
leftside,
rightside,
shiftdown,
rightside,
leftside,
rightside,
leftside,
leftside,
rightside,
shiftdown,
rightside,
leftside,
leftside,
rightside,
shiftdown,
rightside,
leftside,
leftside,
rightside,
shiftdown,
leftside
);
je7pQw9mYt = (
rightside,
leftside,
leftside,
shiftstem,
rightside,
shiftdown,
rightside,
rightside,
leftside,
leftside,
rightside,
shiftdown,
rightside,
leftside,
leftside,
rightside,
shiftdown,
rightside,
leftside,
rightside,
leftside,
leftside,
rightside,
shiftdown,
rightside,
leftside,
leftside,
rightside,
shiftdown,
rightside,
leftside,
leftside,
rightside,
shiftdown,
leftside
);
rf7pecy6mC = (
rightside,
leftside,
leftside,
shiftstem,
rightside,
shiftdown,
rightside,
rightside,
leftside,
leftside,
rightside,
shiftdown,
rightside,
leftside,
leftside,
rightside,
shiftdown,
rightside,
leftside,
rightside,
leftside,
leftside,
rightside,
shiftdown,
rightside,
leftside,
leftside,
rightside,
shiftdown,
rightside,
leftside,
leftside,
rightside,
shiftdown,
leftside
);
ysnLVYacKr = (
rightside,
leftside,
leftside,
shiftstem,
rightside,
shiftdown,
rightside,
rightside,
leftside,
leftside,
rightside,
shiftdown,
rightside,
leftside,
leftside,
rightside,
shiftdown,
rightside,
leftside,
rightside,
leftside,
leftside,
rightside,
shiftdown,
rightside,
leftside,
leftside,
rightside,
shiftdown,
rightside,
leftside,
leftside,
rightside,
shiftdown,
leftside
);
};
};
width = 124;
}
);
unicode = 0054;
},
{
glyphname = U;
layers = (
{
layerId = "1577B97C-DCC5-4AA4-842F-E9BB22E99E3C";
paths = (
{
closed = 1;
nodes = (
"143 0 LINE SMOOTH",
"143 1600 LINE SMOOTH",
"141 1600 LINE SMOOTH",
"141 2 LINE",
"49 2 LINE SMOOTH",
"49 1600 LINE",
"47 1600 LINE SMOOTH",
"47 0 LINE SMOOTH"
);
}
);
userData = {
com.schriftgestaltung.Glyphs.lastChange = "2019-04-28 05:35:59 +0000";
com.typemytype.robofont.Image.Brightness = 0;
com.typemytype.robofont.Image.Contrast = 1;
com.typemytype.robofont.Image.Saturation = 1;
com.typemytype.robofont.Image.Sharpness = 0.4;
com.typemytype.robofont.pointLabels = {
};
};
width = 190;
}
);
unicode = 0055;
},
{
glyphname = V;
layers = (
{
layerId = "1577B97C-DCC5-4AA4-842F-E9BB22E99E3C";
paths = (
{
closed = 1;
nodes = (
"87 0 LINE SMOOTH",
"121 1599 LINE SMOOTH",
"119 1600 LINE SMOOTH",
"85 2 LINE",
"51 2 LINE SMOOTH",
"17 1600 LINE",
"15 1598 LINE SMOOTH",
"49 0 LINE SMOOTH"
);
}
);
userData = {
com.schriftgestaltung.Glyphs.lastChange = "2019-04-28 05:35:59 +0000";
com.typemytype.robofont.pointLabels = {
8JVlgiKN0E = (
rightside,
rightside,
rightside,
shiftstem
);
8xHrkJVycg = (
rightside,
rightside,
shiftdown,
rightside,
shiftstem,
rightside,
rightside,
rightside,
shiftstem
);
AEzhRP9eLc = (
rightside,
rightside,
shiftdown,
rightside,
shiftstem,
rightside,
rightside,
rightside,
shiftstem
);
DS3ZS4pH1O = (
leftside
);
KWypNhzDNy = (
rightside,
rightside,
rightside,
shiftstem
);
QlTGYhLSOg = (
rightside,
rightside,
rightside,
shiftstem
);
d1tzrvftiK = (
rightside,
rightside,
rightside,
shiftstem
);
gP37W9ybnh = (
leftside
);
zRVv4zqHV4 = (
rightside,
rightside,
shiftdown,
rightside,
shiftstem,
rightside,
rightside,
rightside,
shiftstem
);
};
};
width = 136;
}
);
unicode = 0056;
},
{
glyphname = W;
layers = (
{
layerId = "1577B97C-DCC5-4AA4-842F-E9BB22E99E3C";
paths = (
{
closed = 1;
nodes = (
"181 0 LINE",
"215 162 LINE",
"215 1600 LINE",
"213 1600 LINE",
"213 163 LINE",
"179 2 LINE",
"130 2 LINE",
"130 1600 LINE",
"128 1600 LINE",
"128 0 LINE"
);
},
{
closed = 1;
nodes = (
"95 0 LINE",
"134 0 LINE",
"134 2 LINE",
"49 2 LINE",
"49 1600 LINE",
"47 1600 LINE",
"47 0 LINE"
);
}
);
userData = {
com.schriftgestaltung.Glyphs.lastChange = "2019-04-28 11:47:40 +0000";
com.typemytype.robofont.Image.Brightness = 0;
com.typemytype.robofont.Image.Contrast = 1;
com.typemytype.robofont.Image.Saturation = 1;
com.typemytype.robofont.Image.Sharpness = 0.4;
com.typemytype.robofont.pointLabels = {
JvYTBAOPZP = (
rightside
);
l7kU354nQi = (
leftside
);
lwgAcRFjz3 = (
rightside
);
tG1gTEtDdI = (
leftside
);
vmHDiIUK3k = (
leftside
);
vyhN9GCvPW = (
rightside
);
};
};
width = 251;
}
);
unicode = 0057;
},
{
glyphname = X;
layers = (
{
layerId = "1577B97C-DCC5-4AA4-842F-E9BB22E99E3C";
paths = (
{
closed = 1;
nodes = (
"182 3 LINE",
"182 7 LINE",
"155 7 LINE",
"38 1600 LINE",
"7 1600 LINE",
"7 1598 LINE",
"36 1598 LINE",
"153 3 LINE"
);
},
{
closed = 1;
nodes = (
"32 -6 LINE",
"96 794 LINE",
"93 794 LINE",
"29 -6 LINE"
);
},
{
closed = 1;
nodes = (
"100 809 LINE",
"157 1612 LINE",
"155 1612 LINE",
"97 809 LINE"
);
}
);
userData = {
com.schriftgestaltung.Glyphs.lastChange = "2020-12-13 15:32:10 +0000";
com.typemytype.robofont.pointLabels = {
2AoyMNBDus = (
crossbar
);
3RUxnrTvXW = (
crossbar
);
5E2SHdZBnl = (
crossbar
);
DhM0pRDHg5 = (
crossbar
);
HtiNjuVoMT = (
crossbar,
crossbar,
rightside
);
Hxl70cp8II = (
crossbar,
crossbar,
rightside
);
JvPOtaXHlU = (
crossbar
);
L4QRW2yg68 = (
crossbar
);
SOkkUNzV8O = (
crossbar,
crossbar,
leftside
);
TCOXywMDjP = (
crossbar,
crossbar,
rightside
);
aujrsODbNh = (
crossbar,
crossbar,
rightside
);
mdbzbOpU9s = (
crossbar
);
mzk5RCOTSG = (
crossbar
);
oo2HOwJkzJ = (
crossbar,
crossbar,
leftside
);
sLI75Ua05e = (
crossbar,
crossbar,
leftside
);
yfThTK6gCq = (
crossbar
);
z5onK1VUCe = (
crossbar,
crossbar,
leftside
);
zMJTtBUO7o = (
crossbar
);
};
};
width = 156;
}
);
unicode = 0058;
},
{
glyphname = Y;
layers = (
{
layerId = "1577B97C-DCC5-4AA4-842F-E9BB22E99E3C";
paths = (
{
closed = 1;
nodes = (
"90 713 LINE",
"69 0 LINE",
"71 0 LINE",
"123 1600 LINE SMOOTH",
"121 1600 LINE SMOOTH",
"91 715 LINE",
"55 715 LINE SMOOTH",
"17 1600 LINE",
"15 1600 LINE SMOOTH",
"53 713 LINE SMOOTH"
);
}
);
userData = {
com.schriftgestaltung.Glyphs.lastChange = "2020-12-13 15:32:10 +0000";
com.typemytype.robofont.pointLabels = {
3Kveia3O9h = (
INSIDEBOTTOM,
INSIDEBOTTOM,
INSIDEBOTTOM,
INSIDEBOTTOM,
CROSSBAR
);
9ncbEH2hEb = (
INSIDEBOTTOM,
INSIDEBOTTOM,
INSIDEBOTTOM,
INSIDEBOTTOM,
CROSSBAR
);
Jw55i2s2Mm = (
INSIDEBOTTOM,
INSIDEBOTTOM,
INSIDEBOTTOM,
INSIDEBOTTOM,
CROSSBAR
);
YbKEFhFR3q = (
INSIDEBOTTOM,
INSIDEBOTTOM,
INSIDEBOTTOM,
INSIDEBOTTOM,
CROSSBAR
);
k3vH9oxqcN = (
INSIDEBOTTOM,
INSIDEBOTTOM,
INSIDEBOTTOM,
INSIDEBOTTOM,
CROSSBAR
);
oy8ifCCtGL = (
INSIDEBOTTOM,
INSIDEBOTTOM,
INSIDEBOTTOM,
INSIDEBOTTOM,
CROSSBAR
);
rvzWMWl6O1 = (
INSIDEBOTTOM,
INSIDEBOTTOM,
INSIDEBOTTOM,
INSIDEBOTTOM,
CROSSBAR
);
u7HFbTQwMo = (
INSIDEBOTTOM,
INSIDEBOTTOM,
INSIDEBOTTOM,
INSIDEBOTTOM,
CROSSBAR
);
uMA7EQCwXc = (
crossbar
);
};
};
width = 137;
}
);
unicode = 0059;
},
{
glyphname = Z;
layers = (
{
layerId = "1577B97C-DCC5-4AA4-842F-E9BB22E99E3C";
paths = (
{
closed = 1;
nodes = (
"125 0 LINE",
"125 442 LINE",
"123 442 LINE",
"123 2 LINE",
"31 2 LINE",
"31 231 LINE",
"121 1580 LINE",
"121 1600 LINE",
"32 1600 LINE",
"32 1160 LINE",
"34 1160 LINE",
"34 1598 LINE",
"119 1598 LINE",
"119 1580 LINE",
"29 234 LINE",
"29 0 LINE"
);
}
);
userData = {
com.schriftgestaltung.Glyphs.lastChange = "2020-12-13 15:32:10 +0000";
com.typemytype.robofont.pointLabels = {
5FogYRSgkk = (
rightside
);
91SxUS0iwG = (
rightside
);
LQ9fBsTy9K = (
leftside
);
cqhYFAJo1M = (
leftside
);
pzdvPTirLJ = (
rightside
);
svlFvrau4c = (
leftside
);
teVKnpBcVb = (
leftside
);
yyb1NCCI5w = (
rightside
);
};
};
width = 154;
}
);
unicode = 005A;
},
{
glyphname = Eth;
layers = (
{
components = (
{
name = D;
}
);
layerId = "1577B97C-DCC5-4AA4-842F-E9BB22E99E3C";
paths = (
{
closed = 1;
nodes = (
"84 794 LINE",
"84 796 LINE",
"4 796 LINE",
"4 794 LINE"
);
}
);
width = 161;
}
);
unicode = 00D0;
},
{
glyphname = a;
layers = (
{
layerId = "1577B97C-DCC5-4AA4-842F-E9BB22E99E3C";
paths = (
{
closed = 1;
nodes = (
"94 0 LINE",
"115 0 LINE",
"115 0 LINE",
"117 0 LINE",
"117 1200 LINE",
"68 1200 LINE",
"28 926 LINE",
"28 0 LINE"
);
},
{
closed = 1;
nodes = (
"30 925 LINE",
"70 1198 LINE",
"115 1198 LINE",
"115 2 LINE",
"30 2 LINE"
);
}
);
width = 153;
}
);
unicode = 0061;
},
{
glyphname = b;
layers = (
{
layerId = "1577B97C-DCC5-4AA4-842F-E9BB22E99E3C";
paths = (
{
closed = 1;
nodes = (
"33 1700 LINE",
"35 1700 LINE",
"35 2 LINE",
"92 2 LINE",
"126 163 LINE",
"126 1198 LINE",
"34 1198 LINE",
"34 1200 LINE",
"79 1200 LINE",
"128 1200 LINE",
"128 162 LINE",
"94 0 LINE",
"33 0 LINE"
);
}
);
width = 159;
}
);
unicode = 0062;
},
{
glyphname = c;
layers = (
{
layerId = "1577B97C-DCC5-4AA4-842F-E9BB22E99E3C";
paths = (
{
closed = 1;
nodes = (
"31 1038 LINE",
"65 1200 LINE",
"97 1200 LINE",
"97 1198 LINE",
"67 1198 LINE",
"33 1037 LINE",
"33 2 LINE",
"96 2 LINE",
"98 0 LINE",
"31 0 LINE"
);
}
);
width = 120;
}
);
unicode = 0063;
},
{
glyphname = d;
layers = (
{
layerId = "1577B97C-DCC5-4AA4-842F-E9BB22E99E3C";
paths = (
{
closed = 1;
nodes = (
"95 0 LINE",
"129 163 LINE",
"129 1700 LINE",
"127 1700 LINE",
"127 1200 LINE",
"65 1200 LINE",
"31 1038 LINE",
"31 0 LINE"
);
},
{
closed = 1;
nodes = (
"33 1037 LINE",
"67 1198 LINE",
"127 1198 LINE",
"127 163 LINE",
"93 2 LINE",
"33 2 LINE"
);
}
);
width = 160;
}
);
unicode = 0064;
},
{
glyphname = e;
layers = (
{
layerId = "1577B97C-DCC5-4AA4-842F-E9BB22E99E3C";
paths = (
{
closed = 1;
nodes = (
"107 0 LINE",
"107 2 LINE",
"33 2 LINE",
"33 1037 LINE",
"67 1198 LINE",
"107 1198 LINE",
"107 534 LINE",
"34 534 LINE",
"32 533 LINE",
"32 532 LINE",
"109 532 LINE",
"109 1200 LINE",
"65 1200 LINE",
"31 1038 LINE",
"31 0 LINE"
);
}
);
width = 138;
}
);
unicode = 0065;
},
{
glyphname = f;
layers = (
{
background = {
components = (
{
name = o;
}
);
};
layerId = "1577B97C-DCC5-4AA4-842F-E9BB22E99E3C";
paths = (
{
closed = 1;
nodes = (
"37 1531 LINE",
"91 1700 LINE",
"110 1700 LINE",
"110 1698 LINE",
"93 1698 LINE",
"39 1531 LINE",
"39 0 LINE",
"37 0 LINE"
);
},
{
closed = 1;
nodes = (
"10 920 LINE",
"17 920 LINE",
"29 920 LINE",
"71 920 LINE",
"99 920 LINE",
"99 918 LINE",
"10 918 LINE"
);
}
);
width = 104;
}
);
unicode = 0066;
},
{
glyphname = g;
layers = (
{
layerId = "1577B97C-DCC5-4AA4-842F-E9BB22E99E3C";
paths = (
{
closed = 1;
nodes = (
"78 -284 LINE",
"112 -121 LINE",
"112 1200 LINE",
"54 1200 LINE",
"20 1035 LINE",
"20 0 LINE",
"68 0 LINE",
"110 0 LINE",
"110 -121 LINE",
"76 -282 LINE",
"28 -282 LINE",
"28 -284 LINE"
);
},
{
closed = 1;
nodes = (
"22 1034 LINE",
"56 1198 LINE",
"110 1198 LINE",
"110 2 LINE",
"22 2 LINE"
);
}
);
width = 148;
}
);
unicode = 0067;
},
{
glyphname = h;
layers = (
{
layerId = "1577B97C-DCC5-4AA4-842F-E9BB22E99E3C";
paths = (
{
closed = 1;
nodes = (
"112 1198 LINE",
"30 1198 LINE",
"30 1200 LINE",
"74 1200 LINE",
"114 1200 LINE",
"114 0 LINE",
"112 0 LINE"
);
},
{
closed = 1;
nodes = (
"29 1700 LINE",
"31 1700 LINE",
"31 0 LINE",
"29 0 LINE"
);
}
);
width = 145;
}
);
unicode = 0068;
},
{
glyphname = i;
layers = (
{
layerId = "1577B97C-DCC5-4AA4-842F-E9BB22E99E3C";
paths = (
{
closed = 1;
nodes = (
"38 0 LINE",
"38 1200 LINE",
"36 1200 LINE",
"36 0 LINE"
);
},
{
closed = 1;
nodes = (
"38 1288 LINE",
"38 1360 LINE",
"36 1360 LINE",
"36 1288 LINE"
);
}
);
width = 74;
}
);
unicode = 0069;
},
{
glyphname = j;
layers = (
{
layerId = "1577B97C-DCC5-4AA4-842F-E9BB22E99E3C";
paths = (
{
closed = 1;
nodes = (
"-24 -300 LINE",
"28 -44 LINE",
"28 1200 LINE",
"26 1200 LINE",
"26 -45 LINE",
"-26 -298 LINE",
"-35 -298 LINE",
"-35 -300 LINE"
);
},
{
closed = 1;
nodes = (
"26 1430 LINE",
"28 1430 LINE",
"28 1293 LINE",
"26 1293 LINE"
);
}
);
width = 66;
}
);
unicode = 006A;
},
{
glyphname = k;
layers = (
{
layerId = "1577B97C-DCC5-4AA4-842F-E9BB22E99E3C";
paths = (
{
closed = 1;
nodes = (
"125 709 LINE",
"125 0 LINE",
"127 0 LINE",
"127 711 LINE",
"68 711 LINE",
"69 711 LINE",
"117 1200 LINE",
"115 1200 LINE",
"67 711 LINE",
"37 711 LINE",
"37 709 LINE"
);
},
{
closed = 1;
nodes = (
"38 0 LINE",
"38 1700 LINE",
"36 1700 LINE",
"36 0 LINE"
);
}
);
width = 155;
}
);
unicode = 006B;
},
{
glyphname = l;
layers = (
{
layerId = "1577B97C-DCC5-4AA4-842F-E9BB22E99E3C";
paths = (
{
closed = 1;
nodes = (
"39 0 LINE",
"39 1700 LINE",
"37 1700 LINE",
"37 0 LINE"
);
}
);
width = 76;
}
);
unicode = 006C;
},
{
glyphname = m;
layers = (
{
layerId = "1577B97C-DCC5-4AA4-842F-E9BB22E99E3C";
paths = (
{
closed = 1;
nodes = (
"33 0 LINE",
"33 1037 LINE",
"67 1198 LINE",
"116 1198 LINE",
"116 0 LINE",
"118 0 LINE",
"118 1200 LINE",
"65 1200 LINE",
"31 1038 LINE",
"31 0 LINE"
);
},
{
closed = 1;
nodes = (
"199 0 LINE",
"199 1200 LINE",
"151 1200 LINE",
"112 1200 LINE",
"112 1198 LINE",
"197 1198 LINE",
"197 0 LINE"
);
}
);
width = 235;
}
);
unicode = 006D;
},
{
glyphname = n;
layers = (
{
layerId = "1577B97C-DCC5-4AA4-842F-E9BB22E99E3C";
paths = (
{
closed = 1;
nodes = (
"33 0 LINE",
"33 1037 LINE",
"67 1198 LINE",
"122 1198 LINE",
"122 0 LINE",
"124 0 LINE",
"124 1200 LINE",
"65 1200 LINE",
"31 1038 LINE",
"31 0 LINE"
);
}
);
width = 160;
}
);
unicode = 006E;
},
{
glyphname = o;
layers = (
{
layerId = "1577B97C-DCC5-4AA4-842F-E9BB22E99E3C";
paths = (
{
closed = 1;
nodes = (
"129 1200 LINE",
"65 1200 LINE",
"31 1038 LINE",
"31 0 LINE",
"95 0 LINE",
"129 163 LINE"
);
},
{
closed = 1;
nodes = (
"93 2 LINE",
"33 2 LINE",
"33 1037 LINE",
"67 1198 LINE",
"127 1198 LINE",
"127 163 LINE"
);
}
);
width = 160;
}
);
unicode = 006F;
},
{
glyphname = p;
layers = (
{
layerId = "1577B97C-DCC5-4AA4-842F-E9BB22E99E3C";
paths = (
{
closed = 1;
nodes = (
"31 -300 LINE",
"31 0 LINE",
"93 0 LINE",
"127 162 LINE",
"127 1200 LINE",
"63 1200 LINE",
"29 1038 LINE",
"29 -300 LINE"
);
},
{
closed = 1;
nodes = (
"31 1036 LINE",
"65 1198 LINE",
"125 1198 LINE",
"125 162 LINE",
"91 2 LINE",
"31 2 LINE"
);
}
);
width = 151;
}
);
unicode = 0070;
},
{
glyphname = q;
layers = (
{
layerId = "1577B97C-DCC5-4AA4-842F-E9BB22E99E3C";
paths = (
{
closed = 1;
nodes = (
"102 0 LINE",
"117 0 LINE",
"117 -300 LINE",
"119 -300 LINE",
"119 1200 LINE",
"69 1200 LINE",
"28 927 LINE",
"28 0 LINE"
);
},
{
closed = 1;
nodes = (
"30 926 LINE",
"71 1198 LINE",
"117 1198 LINE",
"117 2 LINE",
"30 2 LINE"
);
}
);
width = 156;
}
);
unicode = 0071;
},
{
glyphname = r;
layers = (
{
layerId = "1577B97C-DCC5-4AA4-842F-E9BB22E99E3C";
paths = (
{
closed = 1;
nodes = (
"67 1198 LINE",
"33 1037 LINE",
"33 0 LINE",
"31 0 LINE",
"31 1038 LINE",
"65 1200 LINE",
"94 1200 LINE",
"94 1198 LINE"
);
}
);
width = 99;
}
);
unicode = 0072;
},
{
glyphname = s;
layers = (
{
layerId = "1577B97C-DCC5-4AA4-842F-E9BB22E99E3C";
paths = (
{
closed = 1;
nodes = (
"57 0 LINE",
"91 163 LINE",
"91 611 LINE",
"27 611 LINE",
"27 1038 LINE",
"61 1198 LINE",
"91 1198 LINE",
"91 1200 LINE",
"59 1200 LINE",
"25 1039 LINE",
"25 609 LINE",
"89 609 LINE",
"89 164 LINE",
"55 2 LINE",
"26 2 LINE",
"26 0 LINE"
);
}
);
width = 117;
}
);
unicode = 0073;
},
{
glyphname = t;
layers = (
{
layerId = "1577B97C-DCC5-4AA4-842F-E9BB22E99E3C";
paths = (
{
closed = 1;
nodes = (
"97 0 LINE",
"97 2 LINE",
"33 2 LINE SMOOTH",
"33 1600 LINE",
"31 1600 LINE SMOOTH",
"31 0 LINE SMOOTH"
);
},
{
closed = 1;
nodes = (
"102 1198 LINE",
"102 1200 LINE",
"73 1200 LINE",
"32 1200 LINE",
"32 1198 LINE"
);
}
);
width = 102;
}
);
unicode = 0074;
},
{
glyphname = u;
layers = (
{
layerId = "1577B97C-DCC5-4AA4-842F-E9BB22E99E3C";
paths = (
{
closed = 1;
nodes = (
"95 0 LINE",
"129 162 LINE",
"129 1200 LINE",
"127 1200 LINE",
"127 163 LINE",
"93 2 LINE",
"38 2 LINE",
"38 1200 LINE",
"36 1200 LINE",
"36 0 LINE"
);
}
);
width = 160;
}
);
unicode = 0075;
},
{
glyphname = v;
layers = (
{
layerId = "1577B97C-DCC5-4AA4-842F-E9BB22E99E3C";
paths = (
{
closed = 1;
nodes = (
"94 0 LINE",
"129 1200 LINE",
"127 1200 LINE",
"92 2 LINE",
"38 2 LINE",
"38 1200 LINE",
"36 1200 LINE",
"36 0 LINE"
);
}
);
width = 143;
}
);
unicode = 0076;
},
{
glyphname = x;
layers = (
{
guideLines = (
{
position = "{414, 163}";
}
);
layerId = "1577B97C-DCC5-4AA4-842F-E9BB22E99E3C";
paths = (
{
closed = 1;
nodes = (
"-3 1198 LINE",
"26 1198 LINE",
"114 1 LINE",
"144 1 LINE",
"144 4 LINE",
"116 4 LINE",
"28 1200 LINE",
"-3 1200 LINE"
);
},
{
closed = 1;
nodes = (
"31 -6 LINE",
"71 595 LINE",
"69 595 LINE",
"29 -6 LINE"
);
},
{
closed = 1;
nodes = (
"73 606 LINE",
"110 1209 LINE",
"108 1209 LINE",
"71 606 LINE"
);
}
);
width = 141;
}
);
unicode = 0078;
},
{
glyphname = y;
layers = (
{
layerId = "1577B97C-DCC5-4AA4-842F-E9BB22E99E3C";
paths = (
{
closed = 1;
nodes = (
"95 0 LINE",
"86 -300 LINE",
"88 -300 LINE",
"131 1200 LINE",
"129 1200 LINE",
"95 2 LINE",
"36 2 LINE",
"36 1200 LINE",
"34 1200 LINE",
"34 0 LINE"
);
}
);
width = 144;
}
);
unicode = 0079;
},
{
glyphname = z;
layers = (
{
layerId = "1577B97C-DCC5-4AA4-842F-E9BB22E99E3C";
paths = (
{
closed = 1;
nodes = (
"79 0 LINE",
"79 2 LINE",
"10 2 LINE",
"10 81 LINE",
"80 1131 LINE",
"80 1200 LINE",
"14 1200 LINE",
"14 1198 LINE",
"78 1198 LINE",
"78 1131 LINE",
"8 82 LINE",
"8 0 LINE"
);
}
);
width = 91;
}
);
unicode = 007A;
},
{
glyphname = ordfeminine;
layers = (
{
layerId = "1577B97C-DCC5-4AA4-842F-E9BB22E99E3C";
paths = (
{
closed = 1;
nodes = (
"29 1301 LINE",
"29 1000 LINE SMOOTH",
"31 1000 LINE SMOOTH",
"31 1299 LINE SMOOTH",
"125 1299 LINE SMOOTH",
"125 1000 LINE SMOOTH",
"127 1000 LINE SMOOTH",
"127 1600 LINE SMOOTH",
"29 1600 LINE SMOOTH",
"29 1399 LINE",
"31 1399 LINE",
"31 1598 LINE SMOOTH",
"125 1598 LINE SMOOTH",
"125 1301 LINE SMOOTH"
);
},
{
closed = 1;
nodes = (
"29 1000 LINE",
"125 1000 LINE",
"125 1002 LINE",
"29 1002 LINE"
);
}
);
width = 150;
}
);
unicode = 00AA;
},
{
glyphname = acute;
layers = (
{
layerId = "1577B97C-DCC5-4AA4-842F-E9BB22E99E3C";
paths = (
{
closed = 1;
nodes = (
"150 1848 LINE",
"148 1850 LINE",
"38 1704 LINE",
"40 1703 LINE"
);
}
);
width = 0;
}
);
unicode = 00B4;
},
{
glyphname = zero;
layers = (
{
layerId = "1577B97C-DCC5-4AA4-842F-E9BB22E99E3C";
paths = (
{
closed = 1;
nodes = (
"145 0 LINE",
"145 1600 LINE",
"47 1600 LINE",
"47 0 LINE"
);
},
{
closed = 1;
nodes = (
"49 1598 LINE",
"143 1598 LINE",
"143 2 LINE",
"49 2 LINE"
);
}
);
userData = {
com.schriftgestaltung.Glyphs.lastChange = "2020-12-13 15:32:10 +0000";
com.typemytype.robofont.pointLabels = {
4KX3b3mGg4 = (
leftside
);
NaxGoenf3y = (
rightside
);
V2j8wYP0nr = (
rightside
);
rx6fJSLiri = (
leftside
);
};
};
width = 192;
}
);
unicode = 0030;
},
{
glyphname = one;
layers = (
{
layerId = "1577B97C-DCC5-4AA4-842F-E9BB22E99E3C";
paths = (
{
closed = 1;
nodes = (
"114 0 LINE",
"114 2 LINE",
"55 2 LINE",
"55 1600 LINE",
"-5 1600 LINE",
"-5 1598 LINE",
"53 1598 LINE",
"53 2 LINE",
"-6 2 LINE",
"-6 0 LINE"
);
}
);
userData = {
com.schriftgestaltung.Glyphs.lastChange = "2020-12-13 15:32:10 +0000";
com.typemytype.robofont.pointLabels = {
0DUCJo8xIi = (
rightside
);
4rjIeWbSbx = (
rightside
);
5nmxQXofSG = (
rightside
);
CURJAw79Zl = (
rightside
);
};
};
width = 104;
}
);
unicode = 0031;
},
{
glyphname = two;
layers = (
{
layerId = "1577B97C-DCC5-4AA4-842F-E9BB22E99E3C";
paths = (
{
closed = 1;
nodes = (
"108 0 LINE",
"108 2 LINE",
"31 2 LINE",
"31 669 LINE",
"101 669 LINE",
"101 1600 LINE",
"32 1600 LINE",
"32 1040 LINE",
"34 1040 LINE",
"34 1598 LINE",
"99 1598 LINE",
"99 671 LINE",
"29 671 LINE",
"29 0 LINE"
);
}
);
userData = {
com.schriftgestaltung.Glyphs.lastChange = "2020-12-13 15:32:10 +0000";
com.typemytype.robofont.pointLabels = {
0Ajshqnglh = (
leftside
);
BMi3iTgbBs = (
leftside
);
FoZtLrSAm0 = (
rightside,
leftside,
crossbar
);
QzZqP70XaF = (
leftside
);
T0oGDgxW6o = (
rightside,
leftside,
crossbar
);
bZx9vXVxsz = (
leftside
);
d3YBitZOVz = (
rightside
);
fasUGvhWy6 = (
rightside,
leftside,
crossbar
);
tr1cNbQvAW = (
rightside
);
upRyW44osQ = (
rightside
);
xHiuR7oaYL = (
rightside,
leftside,
crossbar
);
};
};
width = 137;
}
);
unicode = 0032;
},
{
glyphname = three;
layers = (
{
layerId = "1577B97C-DCC5-4AA4-842F-E9BB22E99E3C";
paths = (
{
closed = 1;
nodes = (
"132 0 LINE",
"132 826 LINE",
"97 826 LINE",
"120 1097 LINE",
"120 1600 LINE",
"48 1600 LINE",
"48 1046 LINE",
"50 1046 LINE",
"50 1598 LINE",
"118 1598 LINE",
"118 1097 LINE",
"95 826 LINE",
"70 825 LINE",
"70 823 LINE",
"130 824 LINE",
"130 2 LINE",
"39 2 LINE",
"39 578 LINE",
"37 578 LINE",
"37 0 LINE"
);
}
);
width = 175;
}
);
unicode = 0033;
},
{
glyphname = four;
layers = (
{
layerId = "1577B97C-DCC5-4AA4-842F-E9BB22E99E3C";
paths = (
{
closed = 1;
nodes = (
"93 0 LINE",
"93 799 LINE",
"122 799 LINE",
"122 801 LINE",
"93 801 LINE",
"93 1600 LINE",
"91 1600 LINE",
"91 801 LINE",
"15 801 LINE",
"15 882 LINE",
"35 1600 LINE",
"33 1600 LINE",
"13 881 LINE",
"13 799 LINE",
"91 799 LINE",
"91 0 LINE"
);
}
);
userData = {
com.schriftgestaltung.Glyphs.lastChange = "2020-12-13 15:32:10 +0000";
};
width = 138;
}
);
unicode = 0034;
},
{
glyphname = five;
layers = (
{
layerId = "1577B97C-DCC5-4AA4-842F-E9BB22E99E3C";
paths = (
{
closed = 1;
nodes = (
"128 0 LINE",
"128 801 LINE",
"40 801 LINE",
"40 1598 LINE",
"128 1598 LINE",
"128 1600 LINE",
"38 1600 LINE",
"38 799 LINE",
"126 799 LINE",
"126 2 LINE",
"42 2 LINE",
"42 403 LINE",
"40 403 LINE",
"40 0 LINE"
);
}
);
userData = {
com.schriftgestaltung.Glyphs.lastChange = "2020-12-13 15:32:10 +0000";
com.typemytype.robofont.pointLabels = {
AlMtGpcmf6 = (
rightside,
leftside,
crossbar
);
GxHslptW0F = (
leftside
);
SWxRhN59bN = (
rightside
);
Wam28MqnPG = (
rightside,
leftside,
crossbar
);
X2pSUpzeW3 = (
leftside
);
c38TcsNPOL = (
rightside,
leftside,
crossbar
);
ejjvaR50qr = (
leftside
);
kEx7Jk7fPR = (
rightside
);
pdTUrgsN3b = (
rightside,
leftside,
crossbar
);
pwqGB8iowo = (
rightside
);
zlgP441jBh = (
rightside
);
};
};
width = 164;
}
);
unicode = 0035;
},
{
glyphname = six;
layers = (
{
layerId = "1577B97C-DCC5-4AA4-842F-E9BB22E99E3C";
paths = (
{
closed = 1;
nodes = (
"130 0 LINE",
"130 801 LINE",
"37 801 LINE",
"37 1438 LINE",
"71 1598 LINE",
"128 1598 LINE",
"128 1160 LINE",
"130 1160 LINE",
"130 1600 LINE",
"69 1600 LINE",
"35 1439 LINE",
"35 0 LINE"
);
},
{
closed = 1;
nodes = (
"128 2 LINE",
"37 2 LINE",
"37 799 LINE",
"128 799 LINE"
);
}
);
userData = {
com.schriftgestaltung.Glyphs.lastChange = "2020-12-13 15:32:10 +0000";
com.typemytype.robofont.pointLabels = {
2G5L37c87I = (
rightside
);
KnMArb0tv8 = (
leftside
);
Wuidbv6mUe = (
rightside
);
jtYkxiUX6G = (
rightside
);
oGvEEuxnYv = (
rightside
);
uiw6aBUf4P = (
leftside
);
xR3pEHbMJx = (
leftside
);
};
};
width = 166;
}
);
unicode = 0036;
},
{
glyphname = seven;
layers = (
{
layerId = "1577B97C-DCC5-4AA4-842F-E9BB22E99E3C";
paths = (
{
closed = 1;
nodes = (
"76 -51 LINE",
"133 1491 LINE",
"133 1600 LINE",
"38 1600 LINE",
"38 1160 LINE",
"40 1160 LINE",
"40 1598 LINE",
"131 1598 LINE",
"131 1496 LINE",
"74 -51 LINE"
);
}
);
userData = {
com.schriftgestaltung.Glyphs.lastChange = "2020-12-13 15:32:10 +0000";
com.typemytype.robofont.pointLabels = {
36ml4xRICt = (
leftside
);
PiPrv7Kcoy = (
rigtside
);
PkvwNC9Tx1 = (
rigtside
);
aaDZsh5Mah = (
leftside
);
tgqM27bPOm = (
rigtside
);
};
};
width = 163;
}
);
unicode = 0037;
},
{
glyphname = eight;
layers = (
{
layerId = "1577B97C-DCC5-4AA4-842F-E9BB22E99E3C";
paths = (
{
closed = 1;
nodes = (
"137 0 LINE",
"137 754 LINE",
"101 799 LINE",
"101 799 LINE",
"134 799 LINE",
"134 1600 LINE",
"32 1600 LINE",
"32 843 LINE",
"65 801 LINE",
"65 801 LINE",
"29 801 LINE",
"29 0 LINE"
);
},
{
closed = 1;
nodes = (
"31 799 LINE",
"99 799 LINE",
"135 753 LINE",
"135 2 LINE",
"31 2 LINE"
);
},
{
closed = 1;
nodes = (
"34 844 LINE",
"34 1598 LINE",
"132 1598 LINE",
"132 801 LINE",
"67 801 LINE"
);
}
);
userData = {
com.schriftgestaltung.Glyphs.lastChange = "2020-12-13 15:32:10 +0000";
com.typemytype.robofont.pointLabels = {
2AoyMNBDus = (
crossbar,
crossbar,
crossbar,
crossbar,
leftside
);
3RUxnrTvXW = (
crossbar
);
DmhYpjojFU = (
crossbar
);
HtiNjuVoMT = (
crossbar,
crossbar,
rightside,
crossbar,
crossbar,
rightside,
rightside,
crossbar,
crossbar,
rightside,
crossbar,
crossbar,
rightside,
crossbar,
crossbar
);
Hxl70cp8II = (
crossbar,
crossbar,
rightside,
crossbar,
crossbar,
rightside,
rightside,
crossbar,
crossbar,
rightside,
crossbar,
crossbar,
rightside,
crossbar,
crossbar
);
JvPOtaXHlU = (
crossbar
);
L4QRW2yg68 = (
crossbar
);
SOkkUNzV8O = (
crossbar,
crossbar,
crossbar,
crossbar,
leftside
);
TCOXywMDjP = (
crossbar,
crossbar,
rightside,
crossbar,
crossbar,
rightside,
rightside,
crossbar,
crossbar,
rightside,
crossbar,
crossbar,
rightside,
crossbar,
crossbar
);
aujrsODbNh = (
crossbar,
crossbar,
rightside,
crossbar,
crossbar,
rightside,
rightside,
crossbar,
crossbar,
rightside,
crossbar,
crossbar,
rightside,
crossbar,
crossbar
);
dihu6eADUx = (
crossbar,
crossbar,
rightside,
crossbar,
crossbar,
rightside,
rightside,
crossbar,
crossbar,
rightside,
crossbar,
crossbar,
rightside,
crossbar,
crossbar
);
mdbzbOpU9s = (
crossbar,
crossbar,
rightside,
crossbar,
crossbar,
rightside,
rightside,
crossbar,
crossbar,
rightside,
crossbar,
crossbar,
rightside,
crossbar,
crossbar
);
mzk5RCOTSG = (
crossbar
);
oo2HOwJkzJ = (
crossbar,
crossbar,
crossbar,
crossbar,
leftside
);
qiqbLZf02H = (
crossbar,
crossbar,
crossbar,
crossbar,
leftside
);
sLI75Ua05e = (
crossbar,
crossbar,
crossbar,
crossbar,
leftside
);
vajhJXw5HW = (
crossbar
);
yfThTK6gCq = (
crossbar
);
z5onK1VUCe = (
crossbar,
crossbar,
crossbar,
crossbar,
leftside
);
zMJTtBUO7o = (
crossbar
);
};
};
width = 166;
}
);
unicode = 0038;
},
{
glyphname = hyphen;
layers = (
{
layerId = "1577B97C-DCC5-4AA4-842F-E9BB22E99E3C";
paths = (
{
closed = 1;
nodes = (
"137 799 LINE",
"137 801 LINE",
"20 801 LINE",
"20 799 LINE"
);
}
);
width = 157;
}
);
unicode = 002D;
},
{
glyphname = figuredash;
layers = (
{
layerId = "1577B97C-DCC5-4AA4-842F-E9BB22E99E3C";
paths = (
{
closed = 1;
nodes = (
"219 799 LINE",
"219 801 LINE",
"12 801 LINE",
"12 799 LINE"
);
}
);
width = 231;
}
);
unicode = 2012;
},
{
glyphname = endash;
layers = (
{
layerId = "1577B97C-DCC5-4AA4-842F-E9BB22E99E3C";
paths = (
{
closed = 1;
nodes = (
"227 799 LINE",
"227 801 LINE",
"10 801 LINE",
"10 799 LINE"
);
}
);
width = 237;
}
);
unicode = 2013;
},
{
glyphname = emdash;
layers = (
{
layerId = "1577B97C-DCC5-4AA4-842F-E9BB22E99E3C";
paths = (
{
closed = 1;
nodes = (
"357 799 LINE",
"357 801 LINE",
"10 801 LINE",
"10 799 LINE"
);
}
);
width = 367;
}
);
unicode = 2014;
},
{
glyphname = horizontalbar;
layers = (
{
layerId = "1577B97C-DCC5-4AA4-842F-E9BB22E99E3C";
paths = (
{
closed = 1;
nodes = (
"379 799 LINE",
"379 801 LINE",
"12 801 LINE",
"12 799 LINE"
);
}
);
width = 391;
}
);
unicode = 2015;
},
{
glyphname = parenleft;
layers = (
{
layerId = "1577B97C-DCC5-4AA4-842F-E9BB22E99E3C";
paths = (
{
closed = 1;
nodes = (
"37 0 LINE",
"37 1489 LINE",
"71 1648 LINE",
"124 1648 LINE",
"124 1650 LINE",
"69 1650 LINE",
"35 1489 LINE",
"35 0 LINE"
);
}
);
width = 124;
}
);
unicode = 0028;
},
{
glyphname = bracketleft;
layers = (
{
layerId = "1577B97C-DCC5-4AA4-842F-E9BB22E99E3C";
paths = (
{
closed = 1;
nodes = (
"136 1648 LINE",
"136 1650 LINE",
"47 1650 LINE",
"47 -50 LINE",
"131 -50 LINE",
"131 -48 LINE",
"49 -48 LINE",
"49 1648 LINE"
);
}
);
width = 136;
}
);
unicode = 005B;
},
{
glyphname = braceleft;
layers = (
{
layerId = "1577B97C-DCC5-4AA4-842F-E9BB22E99E3C";
paths = (
{
closed = 1;
nodes = (
"56 1648 LINE",
"143 1648 LINE",
"143 1650 LINE",
"54 1650 LINE",
"54 844 LINE",
"23 801 LINE",
"23 799 LINE",
"54 756 LINE",
"54 -50 LINE",
"138 -50 LINE",
"138 -48 LINE",
"56 -48 LINE",
"56 757 LINE",
"25 799 LINE",
"25 801 LINE",
"56 843 LINE"
);
}
);
width = 155;
}
);
unicode = 007B;
},
{
glyphname = quotesingle;
layers = (
{
layerId = "1577B97C-DCC5-4AA4-842F-E9BB22E99E3C";
paths = (
{
closed = 1;
nodes = (
"37 1188 LINE",
"37 1600 LINE",
"35 1600 LINE",
"35 1188 LINE"
);
}
);
userData = {
com.schriftgestaltung.Glyphs.lastChange = "2020-12-13 15:32:10 +0000";
};
width = 74;
}
);
unicode = 0027;
},
{
glyphname = quoteleft;
layers = (
{
layerId = "1577B97C-DCC5-4AA4-842F-E9BB22E99E3C";
paths = (
{
closed = 1;
nodes = (
"30 1600 LINE",
"20 1318 LINE",
"22 1318 LINE",
"32 1600 LINE"
);
}
);
width = 52;
}
);
unicode = 2018;
},
{
glyphname = asterisk;
layers = (
{
layerId = "1577B97C-DCC5-4AA4-842F-E9BB22E99E3C";
paths = (
{
closed = 1;
nodes = (
"78 1516 LINE",
"133 1454 LINE",
"135 1456 LINE",
"79 1517 LINE",
"155 1541 LINE",
"154 1543 LINE",
"79 1519 LINE",
"79 1601 LINE",
"77 1601 LINE",
"77 1519 LINE",
"1 1543 LINE",
"0 1541 LINE",
"77 1517 LINE",
"21 1456 LINE",
"22 1454 LINE"
);
}
);
userData = {
com.schriftgestaltung.Glyphs.lastChange = "2020-12-13 15:32:10 +0000";
};
width = 155;
}
);
unicode = 002A;
},
{
glyphname = period;
layers = (
{
layerId = "1577B97C-DCC5-4AA4-842F-E9BB22E99E3C";
paths = (
{
closed = 1;
nodes = (
"22 6 LINE",
"16 6 LINE",
"16 0 LINE",
"22 0 LINE"
);
}
);
width = 38;
}
);
unicode = 002E;
},
{
glyphname = exclam;
layers = (
{
components = (
{
name = period;
transform = "{1, 0, 0, 1, 10, 0}";
}
);
layerId = "1577B97C-DCC5-4AA4-842F-E9BB22E99E3C";
paths = (
{
closed = 1;
nodes = (
"30 20 LINE",
"30 1600 LINE",
"28 1600 LINE",
"28 20 LINE"
);
}
);
width = 58;
}
);
unicode = 0021;
},
{
glyphname = question;
layers = (
{
layerId = "1577B97C-DCC5-4AA4-842F-E9BB22E99E3C";
paths = (
{
closed = 1;
nodes = (
"83 329 LINE",
"134 541 LINE",
"134 1600 LINE",
"47 1600 LINE",
"47 1148 LINE",
"49 1148 LINE",
"49 1598 LINE",
"132 1598 LINE",
"132 542 LINE",
"81 331 LINE",
"63 331 LINE",
"63 329 LINE"
);
},
{
closed = 1;
nodes = (
"83 0 LINE",
"83 62 LINE",
"81 62 LINE",
"81 0 LINE"
);
}
);
width = 166;
}
);
unicode = 003F;
},
{
glyphname = backslash;
layers = (
{
layerId = "1577B97C-DCC5-4AA4-842F-E9BB22E99E3C";
paths = (
{
closed = 1;
nodes = (
"5 1650 LINE",
"85 -50 LINE",
"87 -50 LINE",
"7 1650 LINE"
);
}
);
userData = {
com.schriftgestaltung.Glyphs.lastChange = "2020-12-13 15:32:10 +0000";
};
width = 92;
}
);
unicode = 005C;
},
{
glyphname = bar;
layers = (
{
layerId = "1577B97C-DCC5-4AA4-842F-E9BB22E99E3C";
paths = (
{
closed = 1;
nodes = (
"49 -100 LINE",
"49 1700 LINE",
"47 1700 LINE",
"47 -100 LINE"
);
}
);
width = 96;
}
);
unicode = 007C;
},
{
glyphname = ampersand;
layers = (
{
layerId = "1577B97C-DCC5-4AA4-842F-E9BB22E99E3C";
paths = (
{
closed = 1;
nodes = (
"10 0 LINE",
"106 0 LINE",
"195 494 LINE",
"215 494 LINE",
"330 -29 LINE",
"332 -28 LINE",
"217 496 LINE",
"193 496 LINE",
"103 2 LINE",
"12 2 LINE",
"12 600 LINE",
"100 600 LINE",
"100 1242 LINE",
"159 1598 LINE",
"216 1598 LINE",
"216 991 LINE",
"218 991 LINE",
"218 1600 LINE",
"158 1600 LINE",
"98 1242 LINE",
"98 602 LINE",
"10 602 LINE"
);
}
);
width = 332;
}
);
unicode = 0026;
},
{
glyphname = section;
layers = (
{
layerId = "1577B97C-DCC5-4AA4-842F-E9BB22E99E3C";
paths = (
{
closed = 1;
nodes = (
"90 -110 LINE",
"123 44 LINE",
"123 329 LINE",
"131 329 LINE",
"164 451 LINE",
"164 991 LINE",
"73 1151 LINE",
"69 1151 LINE",
"69 1438 LINE",
"103 1598 LINE",
"160 1598 LINE",
"160 1600 LINE",
"101 1600 LINE",
"67 1438 LINE",
"67 1151 LINE",
"41 1151 LINE",
"7 1021 LINE",
"7 489 LINE",
"100 329 LINE",
"121 329 LINE",
"121 48 LINE",
"88 -107 LINE",
"18 -107 LINE",
"18 -110 LINE"
);
},
{
closed = 1;
nodes = (
"9 1021 LINE",
"43 1149 LINE",
"72 1149 LINE",
"162 990 LINE",
"162 451 LINE",
"129 331 LINE",
"101 331 LINE",
"9 490 LINE"
);
}
);
width = 170;
}
);
unicode = 00A7;
},
{
glyphname = paragraph;
layers = (
{
layerId = "1577B97C-DCC5-4AA4-842F-E9BB22E99E3C";
paths = (
{
closed = 1;
nodes = (
"94 -4 LINE",
"94 1600 LINE",
"92 1600 LINE",
"92 -4 LINE"
);
},
{
closed = 1;
nodes = (
"166 -4 LINE",
"166 1600 LINE",
"164 1600 LINE",
"164 -4 LINE"
);
},
{
closed = 1;
nodes = (
"92 1120 LINE",
"92 1600 LINE",
"37 1600 LINE",
"4 1543 LINE",
"4 1120 LINE"
);
},
{
closed = 1;
nodes = (
"165 1598 LINE",
"165 1600 LINE",
"85 1600 LINE",
"85 1598 LINE"
);
}
);
width = 208;
}
);
unicode = 00B6;
},
{
glyphname = minus;
layers = (
{
layerId = "1577B97C-DCC5-4AA4-842F-E9BB22E99E3C";
paths = (
{
closed = 1;
nodes = (
"219 799 LINE",
"219 801 LINE",
"12 801 LINE",
"12 799 LINE"
);
}
);
width = 231;
}
);
unicode = 2212;
},
{
glyphname = greater;
layers = (
{
layerId = "1577B97C-DCC5-4AA4-842F-E9BB22E99E3C";
paths = (
{
closed = 1;
nodes = (
"120 789 LINE",
"120 811 LINE",
"25 884 LINE",
"25 882 LINE",
"118 810 LINE",
"118 790 LINE",
"25 718 LINE",
"25 716 LINE"
);
}
);
width = 150;
}
);
unicode = 003E;
},
{
glyphname = product;
layers = (
{
layerId = "1577B97C-DCC5-4AA4-842F-E9BB22E99E3C";
paths = (
{
closed = 1;
nodes = (
"49 -170 LINE",
"49 1598 LINE",
"133 1598 LINE",
"133 -170 LINE",
"135 -170 LINE",
"135 1600 LINE",
"47 1600 LINE",
"47 -170 LINE"
);
}
);
width = 182;
}
);
unicode = 220F;
},
{
glyphname = summation;
layers = (
{
layerId = "1577B97C-DCC5-4AA4-842F-E9BB22E99E3C";
paths = (
{
closed = 1;
nodes = (
"123 -400 LINE",
"123 -58 LINE",
"121 -58 LINE",
"121 -398 LINE",
"36 -398 LINE",
"116 599 LINE",
"116 601 LINE",
"36 1598 LINE",
"120 1598 LINE",
"120 1160 LINE",
"122 1160 LINE",
"122 1600 LINE",
"34 1600 LINE",
"114 600 LINE",
"34 -400 LINE"
);
}
);
width = 150;
}
);
unicode = 2211;
},
{
glyphname = micro;
layers = (
{
layerId = "1577B97C-DCC5-4AA4-842F-E9BB22E99E3C";
paths = (
{
closed = 1;
nodes = (
"38 -125 LINE",
"38 0 LINE",
"124 0 LINE",
"124 0 LINE",
"126 0 LINE",
"126 1200 LINE",
"124 1200 LINE",
"124 2 LINE",
"38 2 LINE",
"38 1200 LINE",
"36 1200 LINE",
"36 -125 LINE"
);
}
);
userData = {
com.schriftgestaltung.Glyphs.lastChange = "2020-10-07 01:14:07 +0000";
};
width = 162;
}
);
unicode = 00B5;
},
{
glyphname = euro;
layers = (
{
layerId = "1577B97C-DCC5-4AA4-842F-E9BB22E99E3C";
paths = (
{
closed = 1;
nodes = (
"124 752 LINE",
"29 752 LINE",
"29 750 LINE",
"124 750 LINE"
);
},
{
closed = 1;
nodes = (
"124 852 LINE",
"29 852 LINE",
"29 850 LINE",
"124 850 LINE"
);
},
{
closed = 1;
nodes = (
"79 1437 LINE",
"79 0 LINE",
"174 0 LINE",
"174 507 LINE",
"172 507 LINE",
"172 2 LINE",
"81 2 LINE",
"81 1437 LINE",
"118 1598 LINE",
"173 1598 LINE",
"173 1274 LINE",
"175 1274 LINE",
"175 1600 LINE",
"116 1600 LINE"
);
}
);
userData = {
com.schriftgestaltung.Glyphs.lastChange = "2020-10-07 01:14:07 +0000";
};
width = 200;
}
);
unicode = 20AC;
},
{
glyphname = asciitilde;
layers = (
{
background = {
paths = (
{
closed = 1;
nodes = (
"33 1600 LINE",
"-31 1600 LINE",
"-65 1438 LINE",
"-65 0 LINE",
"-1 0 LINE",
"33 163 LINE"
);
},
{
closed = 1;
nodes = (
"-3 2 LINE",
"-63 2 LINE",
"-63 1437 LINE",
"-29 1598 LINE",
"31 1598 LINE",
"31 163 LINE"
);
}
);
};
layerId = "1577B97C-DCC5-4AA4-842F-E9BB22E99E3C";
paths = (
{
closed = 1;
nodes = (
"23 1699 LINE",
"28 1699 LINE",
"68 1777 LINE",
"66 1778 LINE",
"27 1701 LINE",
"24 1701 LINE",
"-31 1791 LINE",
"-37 1791 LINE",
"-81 1714 LINE",
"-79 1713 LINE",
"-36 1789 LINE",
"-32 1789 LINE"
);
}
);
width = 0;
}
);
unicode = 007E;
},
{
glyphname = circumflex;
layers = (
{
layerId = "1577B97C-DCC5-4AA4-842F-E9BB22E99E3C";
paths = (
{
closed = 1;
nodes = (
"947 2347 LINE",
"467 2347 LINE",
"183 1913 LINE",
"465 1838 LINE",
"643 2115 LINE",
"774 2115 LINE",
"949 1840 LINE",
"1231 1915 LINE"
);
}
);
width = 1348;
}
);
unicode = 02C6;
},
{
glyphname = breve;
layers = (
{
layerId = "1577B97C-DCC5-4AA4-842F-E9BB22E99E3C";
paths = (
{
closed = 1;
nodes = (
"1931 2011 LINE",
"1704 1768 LINE",
"905 1768 LINE",
"905 2331 LINE",
"1224 2331 LINE",
"1224 1987 LINE",
"1511 1987 LINE",
"1612 2108 LINE",
"1612 2331 LINE",
"1931 2331 LINE"
);
}
);
width = 2304;
}
);
unicode = 02D8;
},
{
glyphname = tilde;
layers = (
{
layerId = "1577B97C-DCC5-4AA4-842F-E9BB22E99E3C";
paths = (
{
closed = 1;
nodes = (
"299 1718 LINE",
"343 1718 LINE",
"793 2016 LINE",
"629 2230 LINE",
"341 2030 LINE",
"302 2030 LINE",
"-100 2266 LINE",
"-145 2266 LINE",
"-633 1967 LINE",
"-469 1754 LINE",
"-143 1954 LINE",
"-104 1954 LINE"
);
}
);
width = 150;
}
);
unicode = 02DC;
},
{
glyphname = macron;
layers = (
{
layerId = "1577B97C-DCC5-4AA4-842F-E9BB22E99E3C";
paths = (
{
closed = 1;
nodes = (
"741 1871 LINE",
"741 2090 LINE",
"-269 2090 LINE",
"-269 1871 LINE"
);
}
);
width = 450;
}
);
unicode = 00AF;
},
{
glyphname = ring;
layers = (
{
layerId = "1577B97C-DCC5-4AA4-842F-E9BB22E99E3C";
paths = (
{
closed = 1;
nodes = (
"1840 1798 LINE",
"1840 2327 LINE",
"834 2327 LINE",
"834 1798 LINE"
);
},
{
closed = 1;
nodes = (
"1060 2138 LINE",
"1614 2138 LINE",
"1614 1987 LINE",
"1060 1987 LINE"
);
}
);
width = 2609;
}
);
unicode = 02DA;
},
{
glyphname = cedilla;
layers = (
{
layerId = "1577B97C-DCC5-4AA4-842F-E9BB22E99E3C";
paths = (
{
closed = 1;
nodes = (
"413 -310 LINE",
"413 -332 LINE",
"343 -407 LINE",
"-66 -407 LINE",
"-66 -611 LINE",
"473 -611 LINE",
"659 -388 LINE",
"659 -106 LINE",
"296 -106 LINE",
"296 133 LINE",
"60 -145 LINE",
"60 -310 LINE"
);
}
);
width = 728;
}
);
unicode = 00B8;
},
{
glyphname = ogonek;
layers = (
{
layerId = "1577B97C-DCC5-4AA4-842F-E9BB22E99E3C";
paths = (
{
closed = 1;
nodes = (
"728 -530 LINE",
"728 -223 LINE",
"236 -223 LINE",
"236 133 LINE",
"0 -175 LINE",
"0 -530 LINE"
);
}
);
width = 728;
}
);
unicode = 02DB;
},
{
glyphname = estimated;
layers = (
{
layerId = "1577B97C-DCC5-4AA4-842F-E9BB22E99E3C";
paths = (
{
closed = 1;
nodes = (
"466 825 OFFCURVE",
"462 831 OFFCURVE",
"462 841 CURVE SMOOTH",
"462 1376 LINE SMOOTH",
"462 1392 OFFCURVE",
"471 1414 OFFCURVE",
"483 1428 CURVE",
"580 1516 OFFCURVE",
"719 1570 OFFCURVE",
"872 1570 CURVE SMOOTH",
"1011 1570 OFFCURVE",
"1155 1521 OFFCURVE",
"1249 1438 CURVE SMOOTH",
"1266 1424 OFFCURVE",
"1278 1404 OFFCURVE",
"1278 1386 CURVE SMOOTH",
"1278 841 LINE SMOOTH",
"1278 831 OFFCURVE",
"1274 825 OFFCURVE",
"1262 825 CURVE SMOOTH",
"471 825 LINE SMOOTH"
);
},
{
closed = 1;
nodes = (
"1092 -15 OFFCURVE",
"1288 82 OFFCURVE",
"1437 241 CURVE",
"1387 306 LINE",
"1384 306 LINE",
"1257 140 OFFCURVE",
"1071 33 OFFCURVE",
"872 33 CURVE SMOOTH",
"719 33 OFFCURVE",
"580 87 OFFCURVE",
"483 180 CURVE",
"471 194 OFFCURVE",
"462 209 OFFCURVE",
"462 228 CURVE SMOOTH",
"462 773 LINE SMOOTH",
"462 777 OFFCURVE",
"466 782 OFFCURVE",
"471 782 CURVE SMOOTH",
"1639 782 LINE",
"1639 801 LINE SMOOTH",
"1639 1254 OFFCURVE",
"1298 1619 OFFCURVE",
"872 1619 CURVE SMOOTH",
"447 1619 OFFCURVE",
"94 1254 OFFCURVE",
"94 801 CURVE SMOOTH",
"94 349 OFFCURVE",
"442 -15 OFFCURVE",
"868 -15 CURVE SMOOTH"
);
}
);
width = 1734;
}
);
unicode = 212E;
},
{
glyphname = C.wide;
layers = (
{
layerId = "1577B97C-DCC5-4AA4-842F-E9BB22E99E3C";
paths = (
{
closed = 1;
nodes = (
"131 0 LINE",
"131 2 LINE",
"37 2 LINE",
"37 1296 LINE",
"81 1598 LINE",
"130 1598 LINE",
"130 1600 LINE",
"79 1600 LINE",
"35 1297 LINE",
"35 0 LINE"
);
}
);
width = 151;
}
);
},
{
glyphname = G.wide;
layers = (
{
layerId = "1577B97C-DCC5-4AA4-842F-E9BB22E99E3C";
paths = (
{
closed = 1;
nodes = (
"131 0 LINE",
"131 801 LINE",
"75 801 LINE",
"75 799 LINE",
"129 799 LINE",
"129 2 LINE",
"37 2 LINE",
"37 1436 LINE",
"71 1598 LINE",
"131 1598 LINE",
"133 1600 LINE",
"69 1600 LINE",
"35 1437 LINE",
"35 0 LINE"
);
}
);
width = 171;
}
);
},
{
glyphname = L.wide;
layers = (
{
layerId = "1577B97C-DCC5-4AA4-842F-E9BB22E99E3C";
paths = (
{
closed = 1;
nodes = (
"47 1600 LINE",
"49 1600 LINE",
"49 2 LINE",
"122 2 LINE",
"122 0 LINE",
"47 0 LINE"
);
}
);
width = 134;
}
);
},
{
glyphname = Z.wide;
layers = (
{
layerId = "1577B97C-DCC5-4AA4-842F-E9BB22E99E3C";
paths = (
{
closed = 1;
nodes = (
"125 0 LINE",
"125 2 LINE",
"31 2 LINE",
"31 231 LINE",
"121 1480 LINE",
"121 1600 LINE",
"32 1600 LINE",
"32 1598 LINE",
"119 1598 LINE",
"119 1480 LINE",
"29 234 LINE",
"29 0 LINE"
);
}
);
width = 154;
}
);
},
{
glyphname = Y.alt;
layers = (
{
layerId = "1577B97C-DCC5-4AA4-842F-E9BB22E99E3C";
paths = (
{
closed = 1;
nodes = (
"90 713 LINE",
"69 -26 LINE",
"71 -27 LINE",
"121 1599 LINE SMOOTH",
"121 1600 LINE SMOOTH",
"91 715 LINE",
"55 715 LINE SMOOTH",
"17 1600 LINE",
"15 1598 LINE SMOOTH",
"53 713 LINE SMOOTH"
);
}
);
width = 136;
}
);
},
{
glyphname = I.narrow;
layers = (
{
layerId = "1577B97C-DCC5-4AA4-842F-E9BB22E99E3C";
paths = (
{
closed = 1;
nodes = (
"36 1598 LINE",
"34 1598 LINE",
"34 2 LINE",
"36 2 LINE"
);
}
);
width = 70;
}
);
},
{
glyphname = eight.smol;
layers = (
{
layerId = "1577B97C-DCC5-4AA4-842F-E9BB22E99E3C";
paths = (
{
closed = 1;
nodes = (
"86 0 LINE",
"86 469 LINE",
"63 497 LINE",
"63 496 LINE",
"83 496 LINE",
"83 995 LINE",
"20 995 LINE",
"20 524 LINE",
"40 498 LINE",
"40 498 LINE",
"17 498 LINE",
"17 0 LINE"
);
},
{
closed = 1;
nodes = (
"19 496 LINE",
"62 496 LINE",
"84 468 LINE",
"84 2 LINE",
"19 2 LINE"
);
},
{
closed = 1;
nodes = (
"22 525 LINE",
"22 993 LINE",
"81 993 LINE",
"81 498 LINE",
"42 498 LINE"
);
}
);
width = 103;
}
);
},
{
glyphname = five.smol;
layers = (
{
layerId = "1577B97C-DCC5-4AA4-842F-E9BB22E99E3C";
paths = (
{
closed = 1;
nodes = (
"80 0 LINE",
"80 498 LINE",
"26 498 LINE",
"26 993 LINE",
"80 993 LINE",
"80 995 LINE",
"24 995 LINE",
"24 496 LINE",
"78 496 LINE",
"78 2 LINE",
"27 2 LINE",
"27 251 LINE",
"25 251 LINE",
"25 0 LINE"
);
}
);
width = 102;
}
);
},
{
glyphname = four.smol;
layers = (
{
layerId = "1577B97C-DCC5-4AA4-842F-E9BB22E99E3C";
paths = (
{
closed = 1;
nodes = (
"59 0 LINE",
"59 496 LINE",
"76 496 LINE",
"76 498 LINE",
"59 498 LINE",
"59 995 LINE",
"57 995 LINE",
"57 498 LINE",
"9 498 LINE",
"9 549 LINE",
"23 995 LINE",
"21 995 LINE",
"7 548 LINE",
"7 496 LINE",
"57 496 LINE",
"57 0 LINE"
);
}
);
width = 86;
}
);
},
{
glyphname = nine.smol;
layers = (
{
layerId = "1577B97C-DCC5-4AA4-842F-E9BB22E99E3C";
paths = (
{
closed = 1;
nodes = (
"22 995 LINE",
"22 497 LINE",
"79 497 LINE",
"79 101 LINE",
"58 2 LINE",
"24 2 LINE",
"24 274 LINE",
"22 274 LINE",
"22 0 LINE",
"60 0 LINE",
"81 100 LINE",
"81 995 LINE"
);
},
{
closed = 1;
nodes = (
"24 993 LINE",
"79 993 LINE",
"79 499 LINE",
"24 499 LINE"
);
}
);
width = 103;
}
);
},
{
glyphname = one.smol;
layers = (
{
layerId = "1577B97C-DCC5-4AA4-842F-E9BB22E99E3C";
paths = (
{
closed = 1;
nodes = (
"71 0 LINE",
"71 2 LINE",
"34 2 LINE",
"34 995 LINE",
"-3 995 LINE",
"-3 993 LINE",
"32 993 LINE",
"32 2 LINE",
"-4 2 LINE",
"-4 0 LINE"
);
}
);
width = 65;
}
);
},
{
glyphname = seven.smol;
layers = (
{
layerId = "1577B97C-DCC5-4AA4-842F-E9BB22E99E3C";
paths = (
{
closed = 1;
nodes = (
"47 -32 LINE",
"83 928 LINE",
"83 995 LINE",
"24 995 LINE",
"24 722 LINE",
"26 722 LINE",
"26 993 LINE",
"81 993 LINE",
"81 931 LINE",
"46 -32 LINE"
);
}
);
width = 101;
}
);
},
{
glyphname = six.smol;
layers = (
{
layerId = "1577B97C-DCC5-4AA4-842F-E9BB22E99E3C";
paths = (
{
closed = 1;
nodes = (
"83 0 LINE",
"83 499 LINE",
"24 499 LINE",
"24 895 LINE",
"46 993 LINE",
"81 993 LINE",
"81 722 LINE",
"83 722 LINE",
"83 995 LINE",
"44 995 LINE",
"22 895 LINE",
"22 0 LINE"
);
},
{
closed = 1;
nodes = (
"81 2 LINE",
"24 2 LINE",
"24 497 LINE",
"81 497 LINE"
);
}
);
width = 105;
}
);
},
{
glyphname = three.smol;
layers = (
{
layerId = "1577B97C-DCC5-4AA4-842F-E9BB22E99E3C";
paths = (
{
closed = 1;
nodes = (
"83 0 LINE",
"83 514 LINE",
"60 514 LINE",
"75 682 LINE",
"75 995 LINE",
"30 995 LINE",
"30 651 LINE",
"32 651 LINE",
"32 993 LINE",
"73 993 LINE",
"73 682 LINE",
"58 514 LINE",
"44 514 LINE",
"44 512 LINE",
"81 512 LINE",
"81 2 LINE",
"25 2 LINE",
"25 360 LINE",
"23 360 LINE",
"23 0 LINE"
);
}
);
width = 109;
}
);
},
{
glyphname = two.smol;
layers = (
{
layerId = "1577B97C-DCC5-4AA4-842F-E9BB22E99E3C";
paths = (
{
closed = 1;
nodes = (
"67 0 LINE",
"67 1 LINE",
"19 1 LINE",
"19 497 LINE",
"63 497 LINE",
"63 995 LINE",
"20 995 LINE",
"20 728 LINE",
"21 728 LINE",
"21 994 LINE",
"62 994 LINE",
"62 498 LINE",
"18 498 LINE",
"18 0 LINE"
);
}
);
width = 85;
}
);
},
{
glyphname = zero.smol;
layers = (
{
layerId = "1577B97C-DCC5-4AA4-842F-E9BB22E99E3C";
paths = (
{
closed = 1;
nodes = (
"90 0 LINE",
"90 995 LINE",
"29 995 LINE",
"29 0 LINE"
);
},
{
closed = 1;
nodes = (
"30 994 LINE",
"89 994 LINE",
"89 1 LINE",
"30 1 LINE"
);
}
);
width = 119;
}
);
},
